<svg width="32" height="14" viewBox="0 0 32 14" fill="none"
    xmlns="http://www.w3.org/2000/svg">
    <path d="M23.9371 13.5133C24.5613 13.5133 25.0674 13.0073 25.0674 12.383C25.0674 11.7587 24.5613 11.2527 23.9371 11.2527C23.3128 11.2527 22.8067 11.7587 22.8067 12.383C22.8067 13.0073 23.3128 13.5133 23.9371 13.5133Z" fill="#FF006E"/>
    <path d="M25.9517 13.5133C26.576 13.5133 27.082 13.0073 27.082 12.383C27.082 11.7587 26.576 11.2527 25.9517 11.2527C25.3274 11.2527 24.8214 11.7587 24.8214 12.383C24.8214 13.0073 25.3274 13.5133 25.9517 13.5133Z" fill="#FFCC00"/>
    <path d="M27.9654 13.5133C28.5896 13.5133 29.0957 13.0073 29.0957 12.383C29.0957 11.7587 28.5896 11.2527 27.9654 11.2527C27.3411 11.2527 26.8351 11.7587 26.8351 12.383C26.8351 13.0073 27.3411 13.5133 27.9654 13.5133Z" fill="#00E048"/>
    <path d="M8.44463 3.66054C9.06851 3.68232 9.59193 3.19423 9.61372 2.57035C9.6355 1.94647 9.14741 1.42305 8.52353 1.40126C7.89965 1.37948 7.37623 1.86757 7.35444 2.49145C7.33266 3.11533 7.82075 3.63875 8.44463 3.66054Z" fill="white"/>
    <path d="M30.4825 3.51808C28.7302 2.49097 26.7525 1.91012 24.7231 1.82662C24.128 1.79533 22.3573 1.88059 22.3222 2.88588C22.4974 2.892 22.7595 2.9085 22.9624 2.91979C25.0191 3.02523 26.9967 3.7462 28.6387 4.9892C28.1485 5.06612 25.4324 5.31273 23.9307 6.76848C23.9203 6.77862 23.909 6.78611 23.8977 6.79517C23.4857 6.4755 23.1499 6.06823 22.9147 5.60283C22.6795 5.13744 22.5506 4.62556 22.5376 4.10426C21.8849 3.98954 20.1953 4.13016 20.1623 4.81928C20.0749 7.08612 19.2376 9.25984 17.7817 10.9995C17.7268 11.0659 17.6369 11.1726 17.5927 11.222C18.353 11.6378 19.8336 11.4053 20.2249 10.9246C20.9557 10.0463 21.5575 9.06829 22.0121 8.02003C22.1485 8.17661 22.2892 8.32704 22.4382 8.4704C24.0644 10.0396 26.2397 10.2511 28.3575 9.70411C29.8184 9.32804 29.3536 8.66304 29.2762 8.51587C27.6491 9.16771 26.0579 8.37249 25.993 7.49347C25.8575 5.67113 30.7334 5.5094 31.3081 5.4202C31.7698 4.18711 30.8608 3.7556 30.4825 3.51808Z" fill="white"/>
    <path d="M9.75036 4.07195C9.57959 5.36564 9.31103 6.64453 8.94699 7.89764C8.61302 8.87148 7.95381 10.374 6.82592 10.5552C5.19773 10.8172 3.25917 9.28653 3.07555 7.68525C2.86811 5.87826 4.37211 5.06558 5.88566 4.76174C6.31116 4.66242 6.74151 4.58522 7.17499 4.53045C7.07379 3.80302 6.40432 3.85424 5.70771 3.99066C3.73929 4.38315 0.855208 5.1676 0.408533 7.48863C-0.0946655 10.1045 2.88725 11.4978 5.03257 11.5454C7.17789 11.593 9.60193 10.9101 10.8565 9.05594C11.7827 7.6862 12.0328 5.98607 12.3046 4.37022C12.3331 4.20101 12.4196 3.72494 12.4608 3.49104C11.0257 3.52024 9.8298 3.60246 9.75036 4.07195Z" fill="white"/>
    <path d="M13.9994 11.1703C13.9445 11.2377 13.8542 11.3423 13.8099 11.3917C14.5707 11.8086 15.9923 11.5351 16.3836 11.0566C16.9701 10.3475 17.4755 9.57507 17.8903 8.75365L15.9686 7.49144C15.5681 8.83844 14.8982 10.09 13.9994 11.1703Z" fill="white"/>
    <path d="M16.1921 3.03119C14.5569 3.22204 12.8408 4.22746 12.6105 5.99342C12.3715 7.81267 14.1814 8.45582 15.6892 8.63035L17.8716 8.79009C19.1591 6.1764 19.6982 2.622 16.1921 3.03119ZM16.153 7.24972C14.1032 6.25515 15.5498 4.22908 15.7864 4.23734C16.0231 4.24561 16.5846 5.57116 16.153 7.25077L16.153 7.24972Z" fill="white"/>
</svg>
    