<svg width="375" height="67" viewBox="0 0 375 67" fill="none"
    xmlns="http://www.w3.org/2000/svg">
    <rect width="375" height="67" fill="#121217"/>
    <g opacity="0.45" clip-path="url(#clip0_1_647)">
        <path d="M118.937 36.4388C119.687 34.863 120.121 33.0806 119.831 31.3464C119.54 29.6122 118.439 27.9855 116.816 27.3574C115.193 26.7293 113.099 27.3404 112.307 28.8908C111.948 29.5968 111.868 30.4134 112.084 31.1761C112.3 31.9388 112.796 32.5909 113.473 33.0009C114.149 33.411 114.954 33.5485 115.727 33.3859C116.5 33.2232 117.183 32.7725 117.638 32.1244C117.595 33.3198 117.312 34.4942 116.808 35.578C116.304 36.6617 115.588 37.6327 114.702 38.4333C112.787 40.1268 110.349 41.1051 107.799 41.2029C104.09 41.3897 100.286 39.7884 98.0012 36.8546C98.4545 37.2779 99.0392 37.5314 99.6569 37.5727C100.275 37.6139 100.888 37.4403 101.393 37.081C101.898 36.7217 102.264 36.1988 102.431 35.6001C102.597 35.0014 102.552 34.3635 102.305 33.7937C102.058 33.2239 101.623 32.757 101.073 32.4715C100.523 32.1861 99.8919 32.0995 99.2859 32.2263C98.6799 32.3531 98.1359 32.6857 97.7454 33.1679C97.3549 33.6502 97.1417 34.2528 97.1418 34.8743C97.1414 35.2279 97.2113 35.578 97.3475 35.9041C95.3947 32.7072 95.2849 28.3872 97.3475 25.2526C98.4323 23.5919 100.072 22.2368 100.622 20.33C100.841 19.5758 100.872 18.7792 100.712 18.0103C100.552 17.2413 100.206 16.5236 99.7053 15.9203C99.2043 15.317 98.5633 14.8465 97.8386 14.5504C97.114 14.2542 96.328 14.1414 95.5497 14.222C101.811 8.73071 108.464 4.98217 116.534 2.98201C116.365 2.66232 115.379 1.33831 114.714 1.03277C109.853 2.22947 105.646 4.45314 101.261 7.05872C97.0347 9.56246 93.2589 12.7452 89.0519 15.2631C86.5159 16.7879 83.8052 18.1402 80.8972 18.7117C77.9892 19.2832 74.8305 19.0173 72.2945 17.4698C69.8035 15.9505 68.0678 13.0734 68.3073 10.1651C65.8812 10.5159 63.3733 9.97834 61.1557 8.92309C58.8705 7.83955 56.867 6.23546 55.0552 4.47011C54.0323 3.47427 53.0517 2.41336 51.8824 1.59859C51.1603 1.08202 50.3492 0.704106 49.4901 0.483928C50.3487 0.262588 51.1596 -0.115235 51.8824 -0.630732C53.0517 -1.44834 54.0323 -2.50641 55.0552 -3.50225C56.867 -5.2676 58.8705 -6.87452 61.1557 -7.95806C63.3733 -9.01048 65.8812 -9.55084 68.3073 -9.20003C68.0593 -12.1055 69.8035 -14.9855 72.2945 -16.5047C74.8305 -18.0494 77.9864 -18.321 80.8972 -17.7495C83.808 -17.1781 86.5074 -15.8257 89.0519 -14.3009C93.2589 -11.783 97.046 -8.60309 101.261 -6.09652C105.646 -3.49093 109.853 -1.26727 114.714 -0.0705701C115.379 -0.37894 116.365 -1.70295 116.534 -2.02264C108.464 -4.0228 101.811 -7.76851 95.5497 -13.2626C96.3277 -13.1822 97.1133 -13.295 97.8377 -13.591C98.562 -13.8871 99.2028 -14.3572 99.7038 -14.9602C100.205 -15.5631 100.55 -16.2804 100.71 -17.049C100.871 -17.8175 100.84 -18.6138 100.622 -19.3678C100.058 -21.2746 98.4323 -22.6325 97.3475 -24.2904C95.2933 -27.425 95.4032 -31.7478 97.3475 -34.9447C97.2115 -34.6176 97.1416 -34.2666 97.1418 -33.9121C97.1406 -33.2875 97.3538 -32.6817 97.7456 -32.1965C98.1373 -31.7114 98.6836 -31.3766 99.2924 -31.2486C99.9013 -31.1206 100.535 -31.2072 101.088 -31.4938C101.641 -31.7804 102.078 -32.2495 102.327 -32.822C102.575 -33.3946 102.62 -34.0356 102.452 -34.6372C102.285 -35.2387 101.916 -35.764 101.408 -36.1245C100.901 -36.4851 100.284 -36.6589 99.6638 -36.6166C99.0431 -36.5743 98.456 -36.3186 98.0012 -35.8924C100.286 -38.8121 104.09 -40.419 107.799 -40.2379C110.347 -40.1398 112.783 -39.1626 114.697 -37.4711C115.579 -36.6709 116.292 -35.7013 116.795 -34.6197C117.298 -33.5381 117.58 -32.3663 117.624 -31.1735C117.161 -31.8021 116.481 -32.2343 115.718 -32.3854C114.954 -32.5365 114.161 -32.3957 113.495 -31.9904C112.83 -31.5852 112.339 -30.9448 112.119 -30.1949C111.899 -29.4451 111.966 -28.6398 112.307 -27.9371C113.107 -26.3839 115.198 -25.7728 116.816 -26.4009C118.433 -27.0289 119.54 -28.6641 119.831 -30.3927C120.121 -32.1213 119.687 -33.8951 118.937 -35.4709C116.872 -39.8136 112.358 -42.7813 107.593 -43.3075C102.828 -43.8337 97.9364 -42.0401 94.3691 -38.829C90.906 -35.717 88.6659 -31.3461 87.7811 -26.7602C83.0637 -27.4898 78.2463 -26.3958 74.3007 -23.6991L74.1965 -23.6199C74.5681 -24.1515 74.7379 -24.7991 74.6751 -25.4456C74.6124 -26.092 74.3211 -26.6945 73.8542 -27.1441C73.3873 -27.5936 72.7755 -27.8605 72.1296 -27.8963C71.4837 -27.9322 70.8463 -27.7347 70.3328 -27.3397C69.8194 -26.9446 69.4637 -26.378 69.3303 -25.7425C69.1969 -25.1069 69.2945 -24.4444 69.6055 -23.8749C69.9164 -23.3053 70.4202 -22.8664 71.0256 -22.6375C71.631 -22.4085 72.298 -22.4048 72.9059 -22.6269C69.7076 -19.9142 67.4981 -16.211 66.6251 -12.0998C63.2025 -11.772 59.9504 -10.4452 57.27 -8.2834C55.3877 -6.74721 53.8069 -4.82343 51.8345 -3.38343C49.6465 -1.79509 47.0538 -0.863969 44.3588 -0.698627C44.5474 -0.97641 44.7008 -1.27673 44.8153 -1.59262C45.0089 -2.13539 45.0653 -2.71787 44.9795 -3.2879C44.8937 -3.85793 44.6685 -4.39771 44.3239 -4.85887C43.9794 -5.32003 43.5263 -5.68818 43.0052 -5.93035C42.4841 -6.17251 41.9113 -6.28113 41.3382 -6.24646C40.5848 -6.20679 39.8708 -5.89653 39.3263 -5.37228C39.0685 -5.11792 38.8663 -4.81253 38.7324 -4.4755C38.5985 -4.13847 38.5359 -3.77717 38.5486 -3.41455C37.644 -3.69746 36.6381 -3.33251 35.8773 -2.75255C35.1165 -2.17258 34.5135 -1.38044 33.8203 -0.704287C33.4106 -0.287473 32.9344 0.0577094 32.4114 0.317013L32 0.483928L32.417 0.648016C32.9389 0.909145 33.4148 1.25412 33.8259 1.66932C34.5191 2.34547 35.1108 3.13195 35.8829 3.7204C36.655 4.30885 37.6497 4.67098 38.5542 4.37958C38.5408 4.74222 38.6025 5.10371 38.7354 5.44118C38.8683 5.77865 39.0695 6.08475 39.3263 6.34013C39.8689 6.8634 40.5812 7.17276 41.3325 7.21149C41.9059 7.24688 42.4791 7.13875 43.0005 6.8968C43.522 6.65485 43.9754 6.28666 44.3201 5.82529C44.6649 5.36392 44.8901 4.82381 44.9755 4.25347C45.0609 3.68313 45.004 3.10042 44.8097 2.55765C44.6945 2.24291 44.5412 1.94361 44.3532 1.66649C47.0485 1.83044 49.6415 2.7617 51.8288 4.35129C53.8013 5.78846 55.368 7.71507 57.2643 9.25126C59.9469 11.4113 63.2014 12.7343 66.6251 13.0564C67.4976 17.1686 69.7071 20.8728 72.9059 23.5862C72.3005 23.366 71.6366 23.3705 71.0343 23.5989C70.4319 23.8274 69.9308 24.2647 69.6217 24.8318C69.3125 25.3989 69.2157 26.0584 69.3487 26.6909C69.4817 27.3235 69.8358 27.8874 70.3469 28.2806C70.858 28.6739 71.4923 28.8705 72.1353 28.835C72.7782 28.7995 73.3873 28.5342 73.8523 28.0871C74.3174 27.6399 74.6077 27.0405 74.6708 26.3971C74.734 25.7537 74.5657 25.1089 74.1965 24.5792L74.3007 24.6556C78.2471 27.3605 83.0701 28.4579 87.7923 27.7252C88.6771 32.3111 90.9173 36.6764 94.3803 39.7941C97.9477 43.0079 102.834 44.8015 107.604 44.2753C112.375 43.7491 116.872 40.7814 118.937 36.4388Z" fill="#444444"/>
        <path d="M102.444 5.77148L104.487 4.58043C103.009 2.52256 100.842 1.06822 98.3836 0.483917C100.842 -0.101564 103.008 -1.55565 104.487 -3.6126L102.444 -4.80364C100.334 -2.48379 97.9356 -0.891016 94.1879 -0.707126C91.0714 -0.557184 87.9634 -0.381783 84.8498 -0.562844H84.8272L84.7624 -11.6246C84.3003 -10.4392 83.4155 -9.48295 82.5363 -8.56916C81.6572 -7.65536 80.8147 -6.79532 80.2821 -5.69198C79.8155 -4.79871 79.6959 -3.76324 79.9468 -2.78651C79.1272 -3.22251 78.217 -3.45897 77.2896 -3.4768C75.6215 -3.45134 74.1421 -2.44985 72.8206 -1.43138C72.1781 -0.933456 71.5244 -0.415732 70.8481 0.0199468L70.0732 0.455628L70.8481 0.96486C71.5357 1.40054 72.1894 1.91826 72.8206 2.41335C74.1421 3.43465 75.6215 4.43615 77.2896 4.46161C78.2172 4.44291 79.1274 4.20548 79.9468 3.76848C79.6917 4.74443 79.8062 5.78066 80.268 6.67678C80.8034 7.7773 81.6769 8.67129 82.5223 9.55396C83.3676 10.4366 84.2862 11.4212 84.7483 12.6094L84.8131 1.54482H84.8357C87.9352 1.36093 91.0574 1.54483 94.1738 1.68911C97.9356 1.85603 100.322 3.43748 102.444 5.77148Z" fill="#444444"/>
        <path d="M121.153 -6.93722C120.965 -6.40504 120.906 -5.83561 120.982 -5.27619C121.057 -4.71676 121.265 -4.18347 121.586 -3.72056C120.851 -3.79368 120.109 -3.70361 119.412 -3.45672C118.715 -3.20983 118.081 -2.81216 117.554 -2.29187C117.008 -1.7402 116.599 -1.06687 116.072 -0.495396C115.816 -0.209995 115.52 0.035953 115.193 0.234504L114.739 0.483465L115.193 0.729594C115.52 0.930067 115.816 1.17686 116.072 1.46233C116.599 2.02815 117.008 2.70713 117.554 3.2588C118.083 3.77481 118.718 4.1687 119.415 4.41301C120.111 4.65732 120.852 4.74616 121.586 4.67334C121.265 5.13626 121.057 5.66955 120.982 6.22897C120.906 6.78839 120.965 7.35782 121.153 7.89001C121.354 8.43084 121.666 8.92363 122.068 9.33711C122.469 9.75059 122.952 10.0757 123.486 10.2919C124.567 10.7177 125.762 10.7547 126.867 10.3966L126.802 10.3598C126.557 10.4243 126.296 10.3974 126.069 10.2841C125.841 10.1707 125.662 9.97852 125.565 9.74306C125.479 9.50319 125.448 9.24657 125.476 8.99298C125.504 8.73939 125.589 8.49561 125.726 8.28042C126.168 7.52223 126.988 7.07523 127.805 6.76969C128.623 6.46415 129.496 6.25763 130.237 5.81063C130.702 5.54155 131.104 5.17471 131.415 4.73524C131.726 4.29577 131.938 3.79406 132.038 3.26446C132.136 2.60544 132.016 1.93213 131.694 1.34916C136.828 0.96238 141.977 1.86565 146.676 3.97739C147.339 3.34364 148.1 2.82284 148.93 2.43554C148.753 2.31672 148.573 2.20638 148.389 2.09887C146.996 1.30917 145.481 0.76112 143.906 0.477805C145.475 0.193432 146.986 -0.352577 148.375 -1.1376C148.558 -1.24511 148.739 -1.35827 148.916 -1.47426C148.087 -1.8636 147.325 -2.38525 146.662 -3.01894C141.963 -0.906236 136.814 -0.00199644 131.68 -0.387894C132.001 -0.97093 132.122 -1.64416 132.024 -2.30318C131.924 -2.83291 131.712 -3.33478 131.401 -3.7743C131.09 -4.21382 130.688 -4.58057 130.223 -4.84936C129.474 -5.29635 128.608 -5.50288 127.791 -5.80842C126.974 -6.11396 126.154 -6.56379 125.712 -7.31915C125.575 -7.53442 125.49 -7.77819 125.462 -8.03174C125.434 -8.28529 125.465 -8.54188 125.551 -8.78179C125.648 -9.01725 125.827 -9.20942 126.055 -9.32279C126.282 -9.43616 126.543 -9.46306 126.788 -9.39853L126.853 -9.43531C125.748 -9.79344 124.553 -9.75645 123.472 -9.33063C122.942 -9.11378 122.462 -8.78921 122.063 -8.37733C121.664 -7.96544 121.354 -7.47514 121.153 -6.93722V-6.93722Z" fill="#444444"/>
        <path d="M156.067 2.88914C160.317 1.81125 164.774 1.8056 169.159 1.90744C169.207 1.27656 169.232 1.13227 169.235 0.4929C169.238 -0.146474 169.207 -0.299244 169.159 -0.921643C164.774 -0.816967 160.317 -0.822625 156.067 -1.90334C151.675 -3.018 147.468 -5.43969 144.994 -9.25896C144.051 -9.13873 143.099 -9.12165 142.153 -9.20803C143.614 -6.73357 145.574 -4.59306 147.907 -2.92389C150.24 -1.25472 152.895 -0.093783 155.701 0.484413C152.895 1.06412 150.24 2.2266 147.907 3.89723C145.575 5.56786 143.616 7.70973 142.156 10.1853C143.101 10.0964 144.052 10.1106 144.994 10.2278C147.468 6.42549 151.675 4.00379 156.067 2.88914Z" fill="#444444"/>
        <path d="M165.499 -14.3003C162.768 -13.7344 160.308 -12.2888 157.972 -10.7611C155.312 -9.02779 152.74 -7.16342 150.255 -5.16797C150.915 -4.63447 151.659 -4.21391 152.455 -3.92318C155.369 -5.41693 157.319 -6.98141 160.021 -8.08476C161.172 -8.57566 162.414 -8.81484 163.664 -8.78637C164.783 -8.78963 165.884 -8.4969 166.854 -7.93765C168.179 -7.12004 169.061 -5.70267 169.492 -4.20325C169.885 -2.95629 170.127 -1.66639 170.213 -0.361354V1.0928C170.15 2.48275 169.905 3.8583 169.483 5.18365C169.052 6.68307 168.17 8.09761 166.846 8.91521C165.875 9.47447 164.775 9.76719 163.656 9.76394C162.406 9.79364 161.164 9.55542 160.013 9.06515C157.31 7.95898 155.36 6.3945 152.447 4.90357C151.65 5.1943 150.907 5.61487 150.246 6.14837C152.726 8.13439 155.298 9.99875 157.964 11.7415C160.3 13.2692 162.754 14.7233 165.49 15.2807C168.226 15.838 171.303 15.3542 173.315 13.4163C175.048 11.7443 175.747 9.23207 175.699 6.80471C176.894 6.95748 178.139 6.41147 179.081 5.63065C180.16 4.73666 180.96 3.55976 181.898 2.50168C182.481 1.79812 183.175 1.19592 183.953 0.719354C183.984 0.699551 184.389 0.495859 184.389 0.495859L183.953 0.272358C183.176 -0.205943 182.482 -0.807918 181.898 -1.50997C180.974 -2.56804 180.174 -3.74494 179.081 -4.63893C178.131 -5.42259 176.886 -5.96577 175.699 -5.813C175.747 -8.24319 175.048 -10.7526 173.315 -12.4246C171.312 -14.3851 168.232 -14.8548 165.499 -14.3003Z" fill="#444444"/>
        <path d="M256.063 -35.4707C255.314 -33.8949 254.88 -32.1154 255.17 -30.3925C255.46 -28.6696 256.562 -27.0287 258.185 -26.4007C259.808 -25.7726 261.902 -26.3837 262.693 -27.9369C263.053 -28.6429 263.133 -29.4595 262.917 -30.2222C262.7 -30.9849 262.204 -31.637 261.528 -32.047C260.852 -32.4571 260.046 -32.5946 259.273 -32.432C258.5 -32.2693 257.817 -31.8186 257.362 -31.1705C257.407 -32.3633 257.689 -33.5351 258.191 -34.6167C258.694 -35.6983 259.408 -36.6678 260.29 -37.468C262.204 -39.1596 264.64 -40.1368 267.188 -40.2349C270.893 -40.4216 274.7 -38.8203 276.985 -35.8894C276.498 -36.3445 275.861 -36.6028 275.196 -36.6147C274.531 -36.6265 273.885 -36.391 273.382 -35.9535C272.879 -35.516 272.555 -34.9074 272.472 -34.2446C272.39 -33.5818 272.554 -32.9117 272.933 -32.3631C273.313 -31.8145 273.881 -31.4261 274.528 -31.2727C275.176 -31.1192 275.857 -31.2115 276.441 -31.5317C277.025 -31.852 277.47 -32.3777 277.691 -33.0076C277.912 -33.6376 277.894 -34.3275 277.639 -34.9445C279.592 -31.7476 279.702 -27.4248 277.639 -24.2902C276.554 -22.6323 274.914 -21.2744 274.362 -19.3676C274.144 -18.6136 274.114 -17.8176 274.275 -17.0494C274.435 -16.2811 274.781 -15.5642 275.282 -14.9614C275.782 -14.3586 276.423 -13.8885 277.147 -13.5923C277.871 -13.296 278.656 -13.1828 279.434 -13.2624C273.173 -7.76831 266.52 -4.0226 258.45 -2.02244C258.616 -1.70275 259.605 -0.378737 260.27 -0.0703663C265.131 -1.26707 269.338 -3.49073 273.722 -6.09632C277.949 -8.60289 281.725 -11.7828 285.929 -14.3007C288.465 -15.8255 291.176 -17.1778 294.087 -17.7493C296.997 -18.3208 300.156 -18.0492 302.689 -16.5045C305.222 -14.9598 306.916 -12.1053 306.674 -9.19982C309.103 -9.55063 311.61 -9.01028 313.828 -7.95786C316.113 -6.87432 318.117 -5.2674 319.929 -3.50205C320.951 -2.50621 321.932 -1.44813 323.101 -0.630528C323.824 -0.115032 324.635 0.262792 325.494 0.484132C324.635 0.70431 323.823 1.08223 323.101 1.59879C321.932 2.41357 320.951 3.47447 319.929 4.47031C318.117 6.23566 316.113 7.83975 313.828 8.92329C311.61 9.97854 309.103 10.5161 306.674 10.1653C306.924 13.0736 305.18 15.9507 302.689 17.47C300.198 18.9892 297.006 19.2806 294.095 18.7148C291.184 18.1489 288.485 16.791 285.937 15.2661C281.733 12.7482 277.946 9.56549 273.731 7.06175C269.346 4.45617 265.139 2.23251 260.279 1.0358C259.614 1.34134 258.625 2.66536 258.458 2.98504C266.528 4.98521 273.181 8.73375 279.442 14.225C278.665 14.1487 277.881 14.2643 277.159 14.5618C276.436 14.8593 275.797 15.3296 275.297 15.9318C274.797 16.534 274.451 17.2499 274.29 18.0169C274.128 18.784 274.156 19.5791 274.37 20.333C274.934 22.2398 276.563 23.5949 277.647 25.2556C279.702 28.3902 279.592 32.7102 277.647 35.9071C277.784 35.581 277.854 35.2309 277.853 34.8773C277.852 34.251 277.635 33.6443 277.24 33.1596C276.845 32.6748 276.296 32.3417 275.685 32.2164C275.074 32.0911 274.438 32.1813 273.885 32.4718C273.333 32.7623 272.897 33.2352 272.651 33.8109C272.405 34.3866 272.365 35.0297 272.536 35.6319C272.708 36.234 273.081 36.7583 273.593 37.1162C274.105 37.4742 274.724 37.644 275.346 37.5969C275.968 37.5497 276.555 37.2887 277.008 36.8577C274.723 39.7801 270.916 41.3842 267.21 41.206C264.657 41.1093 262.215 40.1299 260.298 38.4335C259.416 37.6335 258.702 36.664 258.199 35.5823C257.697 34.5007 257.415 33.3288 257.371 32.1359C257.825 32.7869 258.509 33.2402 259.283 33.4043C260.058 33.5683 260.866 33.4308 261.543 33.0195C262.22 32.6083 262.717 31.954 262.932 31.1891C263.147 30.4242 263.065 29.6058 262.702 28.8995C261.902 27.3491 259.811 26.738 258.193 27.3661C256.576 27.9942 255.466 29.6294 255.178 31.3551C254.891 33.0809 255.322 34.8603 256.072 36.4475C258.129 40.7816 262.643 43.7465 267.408 44.2755C272.173 44.8046 277.064 43.0081 280.632 39.7943C284.095 36.6823 286.335 32.3113 287.22 27.7254C291.937 28.4555 296.755 27.3583 300.697 24.6558L300.804 24.5794C300.433 25.1111 300.263 25.7587 300.325 26.4052C300.388 27.0516 300.679 27.6541 301.146 28.1036C301.613 28.5532 302.225 28.82 302.871 28.8559C303.517 28.8918 304.154 28.6943 304.668 28.2992C305.181 27.9042 305.537 27.3376 305.67 26.702C305.804 26.0665 305.706 25.404 305.395 24.8345C305.084 24.2649 304.58 23.826 303.975 23.597C303.37 23.3681 302.703 23.3644 302.095 23.5864C305.294 20.873 307.503 17.1688 308.376 13.0566C311.798 12.731 315.051 11.4051 317.731 9.24298C319.627 7.70679 321.194 5.78018 323.163 4.343C325.352 2.75375 327.946 1.82256 330.642 1.6582C330.454 1.93532 330.3 2.23463 330.185 2.54936C329.991 3.09213 329.934 3.67485 330.019 4.24519C330.105 4.81553 330.33 5.35563 330.675 5.817C331.02 6.27837 331.473 6.64656 331.994 6.88852C332.516 7.13047 333.089 7.2386 333.662 7.20321C334.414 7.16397 335.126 6.85469 335.669 6.33185C335.927 6.07724 336.129 5.77133 336.262 5.43372C336.396 5.09611 336.458 4.73425 336.444 4.3713C337.348 4.6542 338.357 4.29208 339.118 3.71212C339.879 3.13216 340.481 2.33718 341.175 1.66103C341.586 1.24584 342.062 0.900862 342.584 0.639732L343.001 0.475645L342.584 0.30873C342.061 0.0494263 341.584 -0.295756 341.175 -0.71257C340.481 -1.38872 339.89 -2.17238 339.118 -2.76083C338.346 -3.34928 337.348 -3.7114 336.444 -3.42283C336.457 -3.78536 336.396 -4.14678 336.262 -4.48393C336.129 -4.82107 335.927 -5.12648 335.669 -5.38056C335.125 -5.90294 334.414 -6.213 333.662 -6.25475C333.089 -6.28941 332.517 -6.1808 331.995 -5.93863C331.474 -5.69647 331.021 -5.32832 330.677 -4.86715C330.332 -4.40599 330.107 -3.86622 330.021 -3.29619C329.935 -2.72616 329.992 -2.14367 330.185 -1.6009C330.3 -1.28501 330.453 -0.984693 330.642 -0.70691C327.946 -0.872647 325.353 -1.80371 323.163 -3.39171C321.191 -4.83172 319.627 -6.7555 317.731 -8.29169C315.05 -10.4531 311.798 -11.7798 308.376 -12.1081C307.502 -16.2193 305.293 -19.9225 302.095 -22.6352C302.7 -22.4149 303.364 -22.4194 303.966 -22.6479C304.569 -22.8763 305.07 -23.3136 305.379 -23.8807C305.688 -24.4479 305.785 -25.1073 305.652 -25.7399C305.519 -26.3724 305.165 -26.9363 304.654 -27.3296C304.143 -27.7228 303.508 -27.9195 302.865 -27.884C302.222 -27.8485 301.613 -27.5831 301.148 -27.136C300.683 -26.6889 300.393 -26.0894 300.33 -25.446C300.267 -24.8026 300.435 -24.1578 300.804 -23.6282L300.697 -23.7074C296.753 -26.4042 291.936 -27.4982 287.22 -26.7684C286.335 -31.3544 284.095 -35.7197 280.632 -38.8373C277.064 -42.0483 272.178 -43.8448 267.408 -43.3158C262.637 -42.7867 258.129 -39.8134 256.063 -35.4707Z" fill="#444444"/>
        <path d="M249.154 39.9643C252.053 35.4802 253.823 30.3454 256.644 25.8047C259.43 21.3178 263.688 17.2495 268.909 16.7092C268.842 13.909 269.45 11.134 270.682 8.62083L268.723 7.55992C267.446 9.87492 266.668 12.4342 266.441 15.0711C263.085 14.5515 259.65 15.0071 256.544 16.3842C253.437 17.7613 250.788 20.0024 248.909 22.8426C248.565 20.8368 247.449 19.0262 246.108 17.49C243.65 14.6809 240.443 12.637 236.865 11.5999C233.284 10.5808 229.487 10.6102 225.921 11.6847C223.044 12.5617 220.345 14.146 218.392 16.4404C217.293 17.7277 216.419 19.2695 216.276 20.967C216.132 22.6644 216.811 24.4778 218.248 25.3747C218.465 25.5087 218.696 25.6196 218.936 25.7057C218.434 25.7509 217.933 25.8217 217.44 25.8811C215.145 26.1573 212.826 26.1649 210.53 25.9037C208.558 25.6802 206.585 25.2474 204.841 24.2855C203.097 23.3236 201.632 21.7817 201.068 19.8721C200.581 18.2312 201.542 15.4559 202.587 14.1319C200.719 15.5775 199.386 19.0856 199.265 21.4592C199.127 24.1412 199.918 26.8147 201.186 29.1826C201.975 30.6537 202.987 32.0598 204.385 32.9679C201.849 34.3061 199.902 36.6938 198.836 39.3815C197.74 42.1455 197.515 45.2037 197.864 48.1516C195.653 48.7913 193.595 49.8762 191.814 51.3401C190.034 52.8041 188.569 54.6166 187.509 56.6672C186.448 54.6169 184.983 52.8047 183.203 51.3407C181.423 49.8768 179.365 48.7918 177.154 48.1516C177.503 45.1981 177.278 42.1398 176.181 39.3815C175.116 36.6938 173.183 34.3061 170.633 32.9679C172.042 32.0598 173.042 30.6537 173.831 29.1826C175.099 26.8147 175.891 24.1412 175.753 21.4592C175.632 19.0856 174.299 15.5775 172.431 14.1319C173.476 15.4559 174.437 18.2312 173.95 19.8721C173.386 21.7817 171.904 23.3264 170.168 24.2911C168.432 25.2558 166.452 25.6859 164.479 25.9094C162.183 26.1706 159.864 26.163 157.57 25.8867C157.077 25.8273 156.575 25.7566 156.074 25.7113C156.314 25.6253 156.544 25.5144 156.761 25.3803C158.193 24.4835 158.877 22.6616 158.734 20.9726C158.59 19.2836 157.716 17.7276 156.617 16.4461C154.665 14.1517 151.962 12.5674 149.088 11.6904C145.524 10.605 141.723 10.5754 138.143 11.6052C134.562 12.6349 131.353 14.6802 128.902 17.4957C127.56 19.0319 126.442 20.8425 126.101 22.8483C124.222 20.008 121.573 17.767 118.466 16.3898C115.359 15.0127 111.925 14.5571 108.568 15.0768C108.343 12.4403 107.567 9.88102 106.292 7.56557L104.319 8.62648C105.55 11.1401 106.158 13.9148 106.092 16.7148C111.316 17.2552 115.571 21.3234 118.357 25.8103C121.175 30.3369 122.948 35.4858 125.847 39.9558C127.846 43.0221 130.333 45.7375 133.21 47.9932C132.847 47.8109 132.447 47.7141 132.041 47.7103C131.423 47.7088 130.823 47.9198 130.341 48.3081C129.859 48.6964 129.524 49.2386 129.392 49.8446C129.26 50.4505 129.338 51.0837 129.614 51.6388C129.89 52.1939 130.347 52.6374 130.908 52.8956C131.47 53.1539 132.103 53.2112 132.702 53.0582C133.301 52.9051 133.829 52.5508 134.199 52.0543C134.57 51.5578 134.76 50.9489 134.738 50.329C134.716 49.709 134.483 49.1154 134.078 48.6467C138.292 51.7571 143.124 53.9186 148.246 54.9839C157.367 56.8709 167.088 55.2357 175.342 50.9015C174.694 50.7588 174.03 50.7139 173.369 50.7685C173.484 50.0133 173.491 49.2454 173.389 48.4883C170.494 50.5394 167.189 51.9343 163.704 52.5763C164.812 50.8619 164.268 48.361 162.763 46.938C161.196 45.447 158.889 44.9859 156.736 45.1528C154.583 45.3197 152.523 46.0383 150.446 46.6268C146.966 47.6113 143.303 48.245 139.756 47.549C134.45 46.5023 130.108 42.5868 127.076 38.0659C128.071 38.7355 129.242 39.0902 130.44 39.0844C131.088 39.0807 131.728 38.933 132.312 38.6517C132.897 38.3705 133.412 37.9627 133.821 37.4577C134.709 36.2978 134.861 34.7418 134.85 33.2791C134.827 29.7626 134.084 26.1838 134.906 22.7634C135.359 20.8845 136.269 19.1476 137.555 17.7084C138.84 16.2692 140.461 15.1725 142.272 14.5165C144.083 13.8605 146.028 13.6658 147.933 13.9497C149.837 14.2336 151.642 14.9873 153.185 16.1434C154.634 17.2297 155.896 18.848 155.781 20.6699C155.039 19.6995 153.543 19.4987 152.512 20.1295C152.025 20.4517 151.643 20.9111 151.415 21.4501C151.187 21.9892 151.123 22.5838 151.23 23.1595C151.352 23.7332 151.616 24.2668 151.997 24.7116C152.378 25.1564 152.864 25.4982 153.411 25.7057C153.518 25.7453 153.628 25.7764 153.735 25.8075C153.522 25.8574 153.313 25.9256 153.112 26.0112C152.533 26.281 152.014 26.6664 151.589 27.1441C151.163 27.6218 150.838 28.1816 150.635 28.7894C150.268 29.8807 150.133 31.0372 150.238 32.1843C147.46 30.5491 145.383 27.836 144.228 24.8287C143.038 21.7167 142.774 18.3218 143.117 15.0032C142.795 15.0697 142.48 15.1663 142.176 15.2918C142.004 15.3625 141.717 15.4927 141.432 15.62C141.21 15.7296 140.996 15.8533 140.79 15.9906C140.797 16.1244 140.797 16.2585 140.79 16.3923C140.655 20.039 141.145 23.6829 142.52 27.0806C143.652 29.9399 145.589 32.4063 148.094 34.1788C147.476 33.8783 146.768 33.8253 146.113 34.0307C145.458 34.236 144.906 34.6843 144.569 35.2841C144.232 35.8839 144.135 36.5902 144.298 37.2593C144.461 37.9283 144.872 38.5096 145.448 38.885C146.023 39.2604 146.719 39.4016 147.394 39.2798C148.069 39.1579 148.673 38.7823 149.082 38.2294C149.491 37.6764 149.675 36.9877 149.596 36.3035C149.517 35.6193 149.181 34.991 148.657 34.5466C149.172 34.8782 149.706 35.1777 150.258 35.4434C156.105 38.2725 163.515 36.7957 168.965 40.3349C172.177 42.4227 174.237 45.5036 174.212 50.0669C177.692 50.0896 180.974 51.9511 183.296 54.5425C184.575 56.0104 185.634 57.6572 186.441 59.4312L187.5 62L188.56 59.4312C189.373 57.656 190.439 56.0091 191.724 54.5425C194.046 51.9511 197.329 50.0896 200.809 50.0669C200.784 45.5036 202.843 42.4284 206.056 40.3349C211.505 36.7957 218.916 38.2696 224.763 35.4434C228.298 33.7316 231.06 30.7457 232.501 27.0806C233.876 23.6857 234.366 20.039 234.231 16.3923C234.231 16.0868 234.231 16.0104 233.974 15.8548C233.744 15.7175 233.506 15.5928 233.261 15.4814C232.819 15.2747 232.357 15.1108 231.884 14.9919C232.227 18.2991 231.962 21.711 230.773 24.8173C229.618 27.836 227.541 30.5491 224.763 32.173C224.868 31.0259 224.733 29.8694 224.366 28.7781C224.162 28.1706 223.837 27.611 223.412 27.1335C222.986 26.6559 222.468 26.2702 221.889 25.9999C221.687 25.9138 221.477 25.8457 221.263 25.7962C221.373 25.7651 221.483 25.734 221.59 25.6944C222.136 25.4865 222.622 25.1445 223.003 24.6998C223.384 24.2551 223.648 23.7216 223.771 23.1482C223.876 22.5736 223.81 21.9809 223.58 21.444C223.351 20.9071 222.97 20.4499 222.483 20.1295C221.452 19.4987 219.947 19.6995 219.218 20.6699C219.102 18.848 220.362 17.2297 221.813 16.1434C223.356 14.9873 225.161 14.2336 227.065 13.9497C228.97 13.6658 230.915 13.8605 232.726 14.5165C234.537 15.1725 236.158 16.2692 237.444 17.7084C238.729 19.1476 239.639 20.8845 240.092 22.7634C240.915 26.1838 240.171 29.7626 240.148 33.2791C240.148 34.7418 240.289 36.2978 241.177 37.4577C241.586 37.9627 242.101 38.3705 242.686 38.6517C243.27 38.933 243.91 39.0807 244.558 39.0844C245.753 39.0855 246.92 38.7278 247.911 38.0575C244.888 42.584 240.548 46.4938 235.231 47.5405C231.689 48.2365 228.015 47.6028 224.54 46.6183C222.483 46.0383 220.415 45.3084 218.257 45.1528C216.098 44.9972 213.796 45.4357 212.229 46.938C210.733 48.3525 210.181 50.8619 211.288 52.5763C207.801 51.9419 204.492 50.5537 201.592 48.5081C201.489 49.2651 201.496 50.0332 201.612 50.7883C200.952 50.7337 200.287 50.7786 199.64 50.9213C207.893 55.2555 217.614 56.8907 226.735 55.0037C231.857 53.9384 236.689 51.7769 240.903 48.6665C240.461 49.1764 240.222 49.8331 240.234 50.5094C240.246 51.1856 240.508 51.8333 240.969 52.3269C241.429 52.8205 242.056 53.1249 242.727 53.181C243.399 53.2372 244.067 53.0411 244.603 52.6308C245.138 52.2205 245.503 51.6253 245.626 50.9603C245.75 50.2954 245.623 49.6081 245.27 49.0318C244.918 48.4554 244.365 48.0309 243.718 47.8406C243.072 47.6503 242.378 47.7077 241.771 48.0017C244.655 45.7476 247.149 43.0321 249.154 39.9643V39.9643Z" fill="#444444"/>
        <path d="M196.421 7.24893C195.669 6.82739 195.294 6.61804 194.776 5.9334C191.025 9.44713 188.709 13.289 187.5 17.5553C186.291 13.2919 183.975 9.44713 180.222 5.9334C179.695 6.61804 179.331 6.82739 178.579 7.24893C181.121 9.69723 183.115 12.6602 184.43 15.9413C185.744 19.2224 186.349 22.7466 186.204 26.2802C186.187 26.6451 186.162 27.0129 186.128 27.3779C186.09 26.6986 185.799 26.0586 185.312 25.5852C184.826 25.1119 184.179 24.84 183.502 24.8239C182.825 24.8077 182.166 25.0484 181.658 25.498C181.149 25.9476 180.828 26.5731 180.759 27.2497C180.689 27.9264 180.876 28.6045 181.282 29.149C181.688 29.6935 182.284 30.0643 182.95 30.1876C183.616 30.3108 184.305 30.1774 184.877 29.814C185.45 29.4505 185.865 28.8838 186.04 28.2266C185.288 34.6118 182.231 40.6434 177.962 45.4416C178.002 46.2017 177.935 46.9638 177.762 47.7048C177.982 47.724 178.198 47.7706 178.407 47.8435C178.615 47.9164 178.813 48.0153 178.996 48.1377C183.058 44.2 185.995 39.2411 187.5 33.7773C189.003 39.2402 191.937 44.199 195.996 48.1377C196.181 48.0127 196.382 47.9119 196.593 47.8378C196.802 47.7649 197.018 47.7184 197.238 47.6992C197.065 46.958 196.997 46.1962 197.035 45.4359C192.778 40.6548 189.735 34.6486 188.96 28.303C189.151 28.9511 189.576 29.5043 190.152 29.8543C190.728 30.2042 191.413 30.3257 192.074 30.195C192.734 30.0642 193.322 29.6906 193.723 29.1474C194.123 28.6041 194.307 27.9303 194.239 27.2579C194.171 26.5854 193.855 25.9628 193.353 25.5119C192.852 25.061 192.201 24.8143 191.528 24.8201C190.854 24.826 190.208 25.0838 189.714 25.5433C189.22 26.0028 188.915 26.6308 188.858 27.3043C188.827 26.962 188.805 26.6168 188.788 26.2745C188.644 22.7412 189.251 19.2177 190.567 15.9376C191.883 12.6575 193.878 9.69584 196.421 7.24893V7.24893Z" fill="#444444"/>
        <path d="M272.566 -4.80357L270.523 -3.61253C272.002 -1.55558 274.168 -0.101494 276.627 0.483987C274.17 1.06539 272.003 2.51555 270.523 4.56919L272.566 5.76023C274.677 3.44038 277.075 1.84478 280.822 1.66371C283.939 1.51094 287.047 1.33554 290.161 1.51943H290.183L290.248 12.584C290.71 11.3958 291.595 10.4424 292.474 9.52857C293.353 8.61478 294.196 7.75191 294.728 6.65139C295.192 5.75604 295.308 4.71928 295.052 3.74309C295.872 4.18009 296.782 4.41752 297.71 4.43622C299.378 4.41076 300.857 3.40926 302.179 2.38796C302.821 1.89287 303.472 1.37515 304.151 0.93947L304.926 0.430233L304.151 -0.00544384C303.461 -0.441123 302.81 -0.958847 302.179 -1.45677C300.857 -2.47524 299.378 -3.47673 297.71 -3.50219C296.782 -3.48436 295.872 -3.2479 295.052 -2.8119C295.308 -3.78714 295.192 -4.82305 294.728 -5.71737C294.196 -6.82071 293.319 -7.69773 292.474 -8.59455C291.629 -9.49137 290.71 -10.4646 290.248 -11.65L290.183 -0.588235H290.161C287.061 -0.407173 283.939 -0.588237 280.822 -0.732521C277.066 -0.89095 274.677 -2.48372 272.566 -4.80357Z" fill="#444444"/>
        <path d="M230.818 36.6549C230.818 35.1596 229.611 33.9474 228.121 33.9474C226.632 33.9474 225.425 35.1596 225.425 36.6549C225.425 38.1501 226.632 39.3623 228.121 39.3623C229.611 39.3623 230.818 38.1501 230.818 36.6549Z" fill="#444444"/>
        <path d="M253.845 -6.93635C253.645 -7.47733 253.334 -7.97035 252.932 -8.38391C252.531 -8.79747 252.048 -9.12249 251.515 -9.33824C250.434 -9.76406 249.239 -9.80105 248.134 -9.44291L248.198 -9.40614C248.444 -9.47115 248.704 -9.44443 248.931 -9.33097C249.158 -9.2175 249.336 -9.02502 249.433 -8.7894C249.52 -8.54985 249.552 -8.29323 249.524 -8.03954C249.497 -7.78585 249.412 -7.54192 249.275 -7.32676C248.832 -6.57139 248.012 -6.12157 247.195 -5.81603C246.378 -5.51049 245.505 -5.30397 244.764 -4.85697C244.298 -4.58818 243.896 -4.22143 243.585 -3.78191C243.275 -3.34239 243.062 -2.84052 242.963 -2.31079C242.864 -1.65178 242.985 -0.978538 243.307 -0.395502C238.173 -0.00960459 233.023 -0.913844 228.325 -3.02655C227.661 -2.39247 226.9 -1.87078 226.07 -1.48187C226.248 -1.36588 226.431 -1.25271 226.614 -1.14521C228.008 -0.356734 229.523 0.191237 231.097 0.475857C229.523 0.759171 228.007 1.30722 226.614 2.09692C226.431 2.20443 226.251 2.31476 226.07 2.43358C226.901 2.82044 227.662 3.34129 228.325 3.97543C233.024 1.86369 238.173 0.960431 243.307 1.34722C242.985 1.93018 242.864 2.60349 242.963 3.26251C243.063 3.79211 243.275 4.29382 243.586 4.73329C243.897 5.17276 244.298 5.5396 244.764 5.80868C245.513 6.25568 246.378 6.4622 247.195 6.76774C248.012 7.07328 248.832 7.52028 249.275 8.27847C249.411 8.49366 249.497 8.73744 249.525 8.99103C249.553 9.24462 249.522 9.50124 249.435 9.74111C249.338 9.97657 249.159 10.1687 248.932 10.2821C248.705 10.3955 248.444 10.4224 248.198 10.3579L248.134 10.3946C249.239 10.7528 250.434 10.7158 251.515 10.29C252.048 10.0738 252.531 9.74864 252.933 9.33516C253.335 8.92168 253.646 8.42889 253.848 7.88806C254.036 7.35587 254.094 6.78644 254.019 6.22702C253.943 5.6676 253.736 5.13431 253.414 4.67139C254.148 4.74421 254.889 4.65537 255.586 4.41106C256.282 4.16675 256.917 3.77286 257.446 3.25685C257.993 2.69103 258.402 2.03185 258.929 1.46038C259.184 1.17424 259.481 0.927363 259.808 0.727645L260.261 0.481516L259.808 0.232555C259.48 0.034725 259.184 -0.21131 258.929 -0.497349C258.402 -1.06317 257.993 -1.74214 257.446 -2.29382C256.92 -2.81411 256.286 -3.21179 255.589 -3.45868C254.892 -3.70557 254.15 -3.79563 253.414 -3.7225C253.736 -4.18503 253.943 -4.71798 254.018 -5.27698C254.093 -5.83599 254.034 -6.40489 253.845 -6.93635V-6.93635Z" fill="#444444"/>
        <path d="M230.007 10.2275C230.948 10.1064 231.9 10.0884 232.845 10.1738C231.386 7.69803 229.428 5.556 227.095 3.88532C224.763 2.21464 222.109 1.05226 219.302 0.472856C222.109 -0.106546 224.764 -1.26923 227.096 -2.94044C229.428 -4.61165 231.387 -6.7544 232.845 -9.23091C231.9 -9.14455 230.948 -9.16163 230.007 -9.28183C227.533 -5.47105 223.323 -3.05784 218.933 -1.92621C214.684 -0.8455 210.223 -0.839842 205.842 -0.944518C205.794 -0.310803 205.766 -0.141058 205.766 0.470024C205.767 0.942533 205.792 1.41467 205.842 1.88457C210.223 1.78272 214.684 1.78838 218.933 2.86626C223.329 4.00355 227.533 6.42525 230.007 10.2275Z" fill="#444444"/>
        <path d="M209.501 -14.3004C206.768 -14.8663 203.685 -14.3768 201.676 -12.4361C199.943 -10.7641 199.244 -8.25468 199.292 -5.8245C198.097 -5.97727 196.852 -5.43408 195.911 -4.65043C194.832 -3.75644 194.029 -2.57954 193.107 -1.52146C192.523 -0.819412 191.829 -0.217437 191.053 0.260864L190.616 0.48436C190.616 0.48436 191.022 0.688057 191.053 0.70786C191.831 1.18443 192.525 1.78663 193.107 2.49018C194.029 3.54826 194.832 4.72516 195.911 5.61915C196.86 6.39998 198.106 6.94599 199.292 6.79322C199.244 9.22058 199.943 11.7328 201.676 13.4048C203.685 15.3427 206.768 15.8237 209.501 15.2692C212.234 14.7147 214.691 13.2577 217.027 11.73C219.687 9.98914 222.26 8.12477 224.745 6.13687C224.085 5.60337 223.341 5.18281 222.545 4.89208C219.631 6.383 217.681 7.94749 214.979 9.05366C213.828 9.54393 212.586 9.78215 211.335 9.75245C210.216 9.7557 209.116 9.46297 208.146 8.90372C206.821 8.08611 205.939 6.67157 205.508 5.17216C205.085 3.84714 204.84 2.47141 204.778 1.0813V-0.372852C204.868 -1.67347 205.113 -2.95856 205.508 -4.2006C205.939 -5.70002 206.821 -7.11739 208.146 -7.935C209.116 -8.49425 210.216 -8.78698 211.335 -8.78372C212.586 -8.81219 213.828 -8.57301 214.979 -8.08211C217.681 -6.97877 219.631 -5.41428 222.545 -3.92052C223.341 -4.21125 224.085 -4.63182 224.745 -5.16532C222.264 -7.15323 219.691 -9.01759 217.027 -10.7584C214.691 -12.289 212.232 -13.7431 209.501 -14.3004Z" fill="#444444"/>
    </g>
    <path d="M207.831 55.9999C209.407 55.9999 210.684 54.7077 210.684 53.1137C210.684 51.5197 209.407 50.2275 207.831 50.2275C206.256 50.2275 204.979 51.5197 204.979 53.1137C204.979 54.7077 206.256 55.9999 207.831 55.9999Z" fill="#FF006E"/>
    <path d="M212.915 55.9999C214.491 55.9999 215.768 54.7077 215.768 53.1137C215.768 51.5197 214.491 50.2275 212.915 50.2275C211.34 50.2275 210.062 51.5197 210.062 53.1137C210.062 54.7077 211.34 55.9999 212.915 55.9999Z" fill="#FFCC00"/>
    <path d="M217.999 55.9999C219.575 55.9999 220.852 54.7077 220.852 53.1137C220.852 51.5197 219.575 50.2275 217.999 50.2275C216.424 50.2275 215.146 51.5197 215.146 53.1137C215.146 54.7077 216.424 55.9999 217.999 55.9999Z" fill="#00E048"/>
    <path d="M168.722 30.8383C170.297 30.894 171.618 29.6477 171.673 28.0546C171.728 26.4616 170.496 25.1251 168.921 25.0695C167.347 25.0139 166.026 26.2601 165.971 27.8532C165.916 29.4462 167.148 30.7827 168.722 30.8383Z" fill="#F2F8FF"/>
    <path d="M224.352 30.4764C220.128 27.8044 214.752 26.4252 209.814 26.157C208.313 26.0776 203.84 26.2947 203.752 28.862C204.194 28.8776 204.856 28.9194 205.367 28.9489C210.56 29.2168 215.554 31.0573 219.7 34.2316C218.462 34.4272 211.607 35.0575 207.815 38.7734C207.789 38.7987 207.761 38.8183 207.732 38.8415C204.318 36.5185 204.299 31.971 204.299 31.971C202.652 31.6783 198.386 32.037 198.302 33.7995C198.082 39.5881 195.968 45.1389 192.293 49.5813C192.157 49.7506 191.927 50.0231 191.816 50.1491C193.736 51.2116 197.473 50.6119 198.459 49.3893C200.305 47.1464 201.825 44.6485 202.973 41.9712C203.318 42.3713 203.673 42.7554 204.048 43.1217C208.15 47.1272 213.644 47.6708 218.987 46.2739C222.671 45.3128 221.5 43.6154 221.305 43.2391C217.197 44.9042 213.182 42.8725 213.018 40.6281C212.676 35.9748 224.984 35.5621 226.435 35.3313C227.602 32.1848 225.307 31.0828 224.352 30.4764Z" fill="#F2F8FF"/>
    <path d="M172.02 31.8885C171.509 34.9402 170.989 38.7163 169.992 41.6578C169.149 44.1451 167.486 47.9824 164.638 48.4445C160.528 49.1135 155.635 45.2044 155.171 41.1158C154.648 36.5022 158.443 34.4261 162.264 33.6503C163.338 33.397 164.425 33.2001 165.519 33.0605C165.263 31.2043 163.573 31.3343 161.815 31.6836C156.846 32.6831 149.566 34.6865 148.439 40.6151C147.169 47.2952 154.696 50.8533 160.111 50.9736C165.514 51.0991 171.647 49.3514 174.811 44.6165C177.149 41.1185 177.783 36.7767 178.467 32.6498C178.539 32.2175 178.757 31.0018 178.861 30.4052C175.238 30.4804 172.22 30.6906 172.02 31.8885Z" fill="#F2F8FF"/>
    <path d="M182.745 50.0153C182.609 50.1881 182.379 50.4542 182.267 50.581C184.188 51.6434 187.776 50.9468 188.763 49.7249C190.244 47.9152 191.52 45.9436 192.567 43.8468L187.717 40.6206C186.706 44.0605 185.014 47.2567 182.745 50.0153V50.0153Z" fill="#F2F8FF"/>
    <path d="M188.278 29.2326C184.154 29.7206 179.823 32.2929 179.238 36.7977C178.634 41.444 183.204 43.0867 187.012 43.5317L192.52 43.9394C195.766 37.263 197.129 28.1862 188.278 29.2326ZM188.18 40.0058C183.006 37.4644 186.652 32.2905 187.255 32.3117C187.857 32.333 189.27 35.717 188.18 40.0058V40.0058Z" fill="#F2F8FF"/>
    <rect x="111" y="13" width="48" height="19" rx="9.5" fill="#444444"/>
    <path d="M120.342 23.8193L121.363 22.7988L122.378 23.8193L121.363 24.8345L120.342 23.8193ZM123.039 22.5195L124.607 21.7676C124.897 22.4443 125.106 23.0173 125.235 23.4863C125.364 23.9554 125.429 24.4997 125.429 25.1191C125.429 25.7135 125.325 26.2453 125.117 26.7144C124.913 27.187 124.628 27.5719 124.263 27.8691C123.898 28.1699 123.474 28.3973 122.99 28.5513C122.51 28.7088 121.986 28.7876 121.417 28.7876C120.084 28.7876 119.082 28.4797 118.409 27.8638C117.739 27.2479 117.404 26.3617 117.404 25.2051C117.404 24.2633 117.598 23.2214 117.984 22.0791L119.499 22.5679C119.188 23.6636 119.032 24.4889 119.032 25.0439C119.032 25.7135 119.22 26.2292 119.596 26.5908C119.975 26.9525 120.582 27.1333 121.417 27.1333C122.219 27.1333 122.811 26.9614 123.194 26.6177C123.577 26.2739 123.769 25.7959 123.769 25.1836C123.769 24.4889 123.526 23.6009 123.039 22.5195ZM126.422 18.1958H128.082V23.3145C128.082 23.7012 128.163 23.9697 128.324 24.1201C128.485 24.2705 128.789 24.3457 129.237 24.3457V26C128.342 26 127.649 25.7744 127.158 25.3232C126.668 24.8721 126.422 24.2132 126.422 23.3467V18.1958ZM132.32 20.8062C132.861 20.8062 133.292 20.9852 133.614 21.3433C133.94 21.6978 134.103 22.1722 134.103 22.7666C134.103 23.4541 133.872 24.061 133.41 24.5874C132.952 25.1102 132.309 25.5005 131.482 25.7583C131.607 26.3599 131.933 26.8254 132.459 27.1548L132.626 27.0742C132.905 26.1755 133.254 25.4969 133.673 25.0386C134.096 24.5767 134.569 24.3457 135.091 24.3457H135.236V26H135.059C134.73 26 134.458 26.1737 134.243 26.521C134.028 26.8719 133.804 27.5075 133.571 28.4277L132.476 28.9219C131.835 28.6533 131.308 28.2702 130.896 27.7725C130.485 27.2747 130.204 26.6839 130.053 26H129.237C129.158 26 129.101 25.9355 129.065 25.8066C129.029 25.6777 129.011 25.4647 129.011 25.1675C129.011 24.8739 129.029 24.6644 129.065 24.5391C129.101 24.4102 129.158 24.3457 129.237 24.3457H129.919C129.958 23.2572 130.193 22.396 130.623 21.7622C131.052 21.1248 131.618 20.8062 132.32 20.8062ZM131.342 24.2598C131.772 24.2311 132.116 24.1058 132.374 23.8838C132.631 23.6618 132.76 23.3825 132.76 23.0459C132.76 22.8561 132.717 22.7111 132.631 22.6108C132.549 22.5106 132.429 22.4604 132.271 22.4604C131.981 22.4604 131.75 22.627 131.579 22.96C131.407 23.2894 131.328 23.7227 131.342 24.2598ZM136.993 18.2334L138.013 17.2129L139.028 18.2334L138.013 19.2485L136.993 18.2334ZM135.688 22.7129C135.688 22.0361 135.91 21.4757 136.354 21.0317C136.801 20.5877 137.358 20.3657 138.024 20.3657C138.679 20.3657 139.231 20.5859 139.678 21.0264C140.129 21.4668 140.355 22.02 140.355 22.686C140.355 23.3413 140.092 23.8748 139.565 24.2866C139.787 24.326 140.042 24.3457 140.328 24.3457H140.812V26H140.167C139.361 26 138.634 25.855 137.986 25.5649C137.338 25.855 136.613 26 135.811 26H135.231C135.152 26 135.095 25.9409 135.059 25.8228C135.02 25.7046 135 25.488 135 25.1729C135 24.8577 135.02 24.6411 135.059 24.5229C135.095 24.4048 135.152 24.3457 135.231 24.3457H135.661C135.961 24.3457 136.232 24.326 136.472 24.2866C135.949 23.8856 135.688 23.361 135.688 22.7129ZM138.013 23.916C138.468 23.6725 138.695 23.2983 138.695 22.7935C138.695 22.5786 138.636 22.396 138.518 22.2456C138.403 22.0916 138.239 22.0146 138.024 22.0146C137.802 22.0146 137.632 22.0898 137.514 22.2402C137.399 22.3906 137.342 22.575 137.342 22.7935C137.342 23.0262 137.401 23.241 137.519 23.438C137.641 23.6349 137.806 23.7943 138.013 23.916ZM147.01 22.8042C146.448 22.8042 145.837 23.2661 145.178 24.1899C145.425 24.2938 145.767 24.3457 146.204 24.3457C146.501 24.3457 146.761 24.3188 146.983 24.2651C147.208 24.2078 147.393 24.113 147.536 23.9805C147.679 23.848 147.751 23.6833 147.751 23.4863C147.751 23.2858 147.681 23.1229 147.542 22.9976C147.405 22.8687 147.228 22.8042 147.01 22.8042ZM142.213 22.1113H143.868L143.873 23.1855C143.884 23.3216 143.907 23.4219 143.943 23.4863C143.979 23.5472 144.032 23.6009 144.104 23.6475C144.527 22.8669 145.012 22.2617 145.56 21.832C146.111 21.3988 146.696 21.1821 147.316 21.1821C147.989 21.1821 148.532 21.4023 148.943 21.8428C149.355 22.2832 149.561 22.8382 149.561 23.5078C149.561 23.8695 149.502 24.1917 149.384 24.4746C149.269 24.7575 149.108 24.9938 148.9 25.1836C148.693 25.3734 148.438 25.5309 148.138 25.6562C147.84 25.778 147.518 25.8657 147.171 25.9194C146.827 25.9731 146.449 26 146.038 26C145.336 26 144.723 25.9123 144.201 25.7368C143.681 25.5614 143.293 25.3197 143.035 25.0117C142.903 25.3125 142.647 25.5524 142.267 25.7314C141.888 25.9105 141.472 26 141.021 26H140.817C140.738 26 140.681 25.9409 140.645 25.8228C140.609 25.7046 140.591 25.488 140.591 25.1729C140.591 24.8577 140.609 24.6411 140.645 24.5229C140.681 24.4048 140.738 24.3457 140.817 24.3457H141.021C141.232 24.3457 141.406 24.3332 141.542 24.3081C141.678 24.2795 141.793 24.2401 141.886 24.1899C141.979 24.1362 142.047 24.0575 142.09 23.9536C142.136 23.8462 142.169 23.728 142.187 23.5991C142.204 23.4666 142.213 23.2948 142.213 23.0835V22.1113ZM152.247 26H150.592V18.1958H152.247V26Z" fill="#FFCC00"/>
    <defs>
        <clipPath id="clip0_1_647">
            <rect width="62" height="311" fill="white" transform="translate(32 62) rotate(-90)"/>
        </clipPath>
    </defs>
</svg>
    