<svg width="311" height="62" viewBox="0 0 311 62" fill="none"
    xmlns="http://www.w3.org/2000/svg">
    <g opacity="0.15" clip-path="url(#clip0_1_196)">
        <path d="M86.9374 36.4388C87.687 34.863 88.1209 33.0806 87.8307 31.3464C87.5404 29.6122 86.4387 27.9855 84.8156 27.3574C83.1926 26.7293 81.0989 27.3404 80.3072 28.8908C79.9476 29.5968 79.8678 30.4134 80.0841 31.1761C80.3003 31.9388 80.7965 32.5909 81.4725 33.0009C82.1485 33.411 82.9543 33.5485 83.7273 33.3859C84.5003 33.2232 85.1832 32.7725 85.6384 32.1244C85.5947 33.3198 85.3123 34.4942 84.808 35.578C84.3036 36.6617 83.5875 37.6327 82.7023 38.4333C80.7872 40.1268 78.3488 41.1051 75.7987 41.2029C72.0905 41.3897 68.2864 39.7884 66.0012 36.8546C66.4545 37.2779 67.0392 37.5314 67.6569 37.5727C68.2746 37.6139 68.8876 37.4403 69.3927 37.081C69.8978 36.7217 70.2643 36.1988 70.4305 35.6001C70.5967 35.0014 70.5524 34.3635 70.3052 33.7937C70.0579 33.2239 69.6227 32.757 69.0728 32.4715C68.5229 32.1861 67.8919 32.0995 67.2859 32.2263C66.6799 32.3531 66.1358 32.6857 65.7454 33.1679C65.3549 33.6502 65.1417 34.2528 65.1418 34.8743C65.1414 35.2279 65.2113 35.578 65.3475 35.9041C63.3947 32.7072 63.2849 28.3872 65.3475 25.2526C66.4323 23.5919 68.0723 22.2368 68.6217 20.33C68.8406 19.5758 68.8715 18.7792 68.7117 18.0103C68.5519 17.2413 68.2063 16.5236 67.7053 15.9203C67.2043 15.317 66.5633 14.8465 65.8386 14.5504C65.114 14.2542 64.328 14.1414 63.5497 14.222C69.8109 8.73071 76.4637 4.98217 84.5338 2.98201C84.3648 2.66232 83.3785 1.33831 82.7135 1.03277C77.8529 2.22947 73.6459 4.45314 69.2614 7.05872C65.0347 9.56246 61.2589 12.7452 57.0519 15.2631C54.5159 16.7879 51.8052 18.1402 48.8972 18.7117C45.9892 19.2832 42.8305 19.0173 40.2945 17.4698C37.8035 15.9505 36.0678 13.0734 36.3073 10.1651C33.8812 10.5159 31.3733 9.97834 29.1557 8.92309C26.8705 7.83955 24.867 6.23546 23.0552 4.47011C22.0323 3.47427 21.0517 2.41336 19.8824 1.59859C19.1603 1.08202 18.3492 0.704105 17.4901 0.483929C18.3487 0.262589 19.1596 -0.115234 19.8824 -0.630733C21.0517 -1.44834 22.0323 -2.50641 23.0552 -3.50225C24.867 -5.2676 26.8705 -6.87452 29.1557 -7.95806C31.3733 -9.01048 33.8812 -9.55083 36.3073 -9.20003C36.0593 -12.1055 37.8035 -14.9855 40.2945 -16.5047C42.8305 -18.0494 45.9864 -18.321 48.8972 -17.7495C51.808 -17.1781 54.5074 -15.8257 57.0519 -14.3009C61.2589 -11.783 65.046 -8.60309 69.2614 -6.09652C73.6459 -3.49094 77.8529 -1.26727 82.7135 -0.0705719C83.3785 -0.378941 84.3648 -1.70295 84.5338 -2.02264C76.4637 -4.0228 69.8109 -7.76851 63.5497 -13.2626C64.3277 -13.1822 65.1133 -13.295 65.8377 -13.591C66.562 -13.8871 67.2028 -14.3572 67.7038 -14.9602C68.2047 -15.5631 68.5504 -16.2804 68.7105 -17.049C68.8705 -17.8175 68.8401 -18.6138 68.6217 -19.3678C68.0582 -21.2746 66.4323 -22.6325 65.3475 -24.2904C63.2933 -27.425 63.4032 -31.7478 65.3475 -34.9447C65.2115 -34.6176 65.1416 -34.2666 65.1418 -33.9121C65.1406 -33.2875 65.3538 -32.6817 65.7456 -32.1965C66.1373 -31.7114 66.6836 -31.3766 67.2924 -31.2486C67.9013 -31.1206 68.5355 -31.2072 69.0882 -31.4938C69.6409 -31.7804 70.0783 -32.2495 70.3268 -32.822C70.5752 -33.3946 70.6196 -34.0356 70.4523 -34.6372C70.285 -35.2387 69.9164 -35.764 69.4085 -36.1245C68.9006 -36.4851 68.2844 -36.6589 67.6637 -36.6166C67.0431 -36.5743 66.456 -36.3186 66.0012 -35.8924C68.2864 -38.8121 72.0905 -40.419 75.7987 -40.2379C78.3465 -40.1398 80.7828 -39.1626 82.6966 -37.4711C83.5788 -36.6709 84.2923 -35.7013 84.7952 -34.6197C85.298 -33.5381 85.5799 -32.3663 85.6243 -31.1735C85.1615 -31.8021 84.4814 -32.2343 83.7175 -32.3854C82.9536 -32.5365 82.1611 -32.3957 81.4953 -31.9904C80.8296 -31.5852 80.3386 -30.9448 80.1188 -30.1949C79.899 -29.4451 79.9662 -28.6398 80.3072 -27.9371C81.1074 -26.3839 83.1982 -25.7728 84.8156 -26.4009C86.433 -27.0289 87.5404 -28.6641 87.8307 -30.3927C88.1209 -32.1213 87.687 -33.8951 86.9374 -35.4709C84.872 -39.8136 80.3579 -42.7813 75.593 -43.3075C70.8281 -43.8337 65.9364 -42.04 62.3691 -38.829C58.906 -35.717 56.6659 -31.3461 55.7811 -26.7602C51.0637 -27.4898 46.2463 -26.3958 42.3007 -23.6991L42.1965 -23.6199C42.5681 -24.1515 42.7379 -24.7991 42.6751 -25.4456C42.6124 -26.092 42.3211 -26.6945 41.8542 -27.1441C41.3873 -27.5936 40.7755 -27.8605 40.1296 -27.8963C39.4837 -27.9322 38.8463 -27.7347 38.3328 -27.3397C37.8194 -26.9446 37.4637 -26.378 37.3303 -25.7425C37.1969 -25.1069 37.2945 -24.4444 37.6055 -23.8749C37.9164 -23.3053 38.4202 -22.8664 39.0256 -22.6375C39.631 -22.4085 40.298 -22.4048 40.9059 -22.6269C37.7076 -19.9142 35.4981 -16.211 34.6251 -12.0998C31.2025 -11.772 27.9504 -10.4452 25.27 -8.28341C23.3877 -6.74721 21.8069 -4.82344 19.8345 -3.38343C17.6465 -1.79509 15.0538 -0.863968 12.3588 -0.698627C12.5474 -0.97641 12.7008 -1.27673 12.8153 -1.59262C13.0089 -2.13539 13.0653 -2.71787 12.9795 -3.2879C12.8937 -3.85793 12.6685 -4.39771 12.3239 -4.85887C11.9794 -5.32003 11.5263 -5.68818 11.0052 -5.93035C10.4841 -6.17252 9.91133 -6.28113 9.33817 -6.24646C8.58481 -6.20679 7.87075 -5.89653 7.32627 -5.37228C7.06854 -5.11792 6.86631 -4.81253 6.73242 -4.4755C6.59854 -4.13847 6.53592 -3.77718 6.54855 -3.41455C5.64404 -3.69746 4.63809 -3.33251 3.87729 -2.75254C3.11648 -2.17258 2.51347 -1.38044 1.8203 -0.704288C1.41057 -0.287472 0.934389 0.0577087 0.411398 0.317013L0 0.483929L0.417034 0.648014C0.938928 0.909145 1.41483 1.25412 1.82593 1.66932C2.51911 2.34547 3.11085 3.13195 3.88292 3.7204C4.655 4.30885 5.64968 4.67097 6.55419 4.37958C6.54078 4.74222 6.60247 5.10371 6.73537 5.44118C6.86827 5.77865 7.06947 6.08475 7.32627 6.34013C7.86888 6.8634 8.58116 7.17276 9.33254 7.21149C9.90591 7.24688 10.4791 7.13875 11.0005 6.8968C11.522 6.65485 11.9754 6.28666 12.3201 5.82529C12.6649 5.36391 12.8901 4.82381 12.9755 4.25347C13.0609 3.68313 13.004 3.10042 12.8097 2.55765C12.6945 2.24291 12.5412 1.94361 12.3532 1.66649C15.0485 1.83044 17.6415 2.7617 19.8288 4.35129C21.8013 5.78846 23.368 7.71507 25.2643 9.25126C27.9469 11.4114 31.2014 12.7343 34.6251 13.0564C35.4976 17.1686 37.7071 20.8728 40.9059 23.5862C40.3005 23.366 39.6366 23.3705 39.0343 23.5989C38.4319 23.8274 37.9308 24.2647 37.6217 24.8318C37.3125 25.3989 37.2157 26.0584 37.3487 26.6909C37.4817 27.3235 37.8358 27.8874 38.3469 28.2806C38.858 28.6739 39.4923 28.8705 40.1353 28.835C40.7782 28.7995 41.3873 28.5342 41.8523 28.0871C42.3174 27.6399 42.6077 27.0405 42.6708 26.3971C42.734 25.7537 42.5657 25.1089 42.1965 24.5792L42.3007 24.6556C46.2471 27.3605 51.0701 28.4579 55.7923 27.7252C56.6771 32.3111 58.9173 36.6764 62.3803 39.7941C65.9477 43.0079 70.8337 44.8015 75.6042 44.2753C80.3748 43.7491 84.872 40.7814 86.9374 36.4388Z" fill="black"/>
        <path d="M70.4441 5.77148L72.487 4.58043C71.0093 2.52256 68.8425 1.06822 66.3836 0.483916C68.842 -0.101564 71.0084 -1.55565 72.487 -3.6126L70.4441 -4.80364C68.3335 -2.48379 65.9356 -0.891016 62.1879 -0.707126C59.0714 -0.557184 55.9634 -0.381783 52.8498 -0.562844H52.8272L52.7624 -11.6246C52.3003 -10.4392 51.4155 -9.48295 50.5364 -8.56915C49.6572 -7.65536 48.8147 -6.79532 48.2821 -5.69198C47.8154 -4.79871 47.6959 -3.76324 47.9468 -2.7865C47.1272 -3.22251 46.217 -3.45897 45.2896 -3.4768C43.6215 -3.45134 42.1421 -2.44985 40.8206 -1.43138C40.1781 -0.933456 39.5244 -0.415732 38.8481 0.0199471L38.0732 0.455628L38.8481 0.96486C39.5357 1.40054 40.1894 1.91826 40.8206 2.41335C42.1421 3.43465 43.6215 4.43615 45.2896 4.46161C46.2172 4.44291 47.1274 4.20548 47.9468 3.76848C47.6917 4.74443 47.8062 5.78066 48.268 6.67678C48.8034 7.7773 49.6769 8.67129 50.5223 9.55396C51.3676 10.4366 52.2862 11.4212 52.7483 12.6094L52.8131 1.54482H52.8357C55.9352 1.36093 59.0574 1.54483 62.1738 1.68911C65.9356 1.85603 68.3223 3.43748 70.4441 5.77148Z" fill="black"/>
        <path d="M89.1526 -6.93723C88.965 -6.40504 88.9065 -5.83561 88.982 -5.27619C89.0574 -4.71676 89.2647 -4.18347 89.5865 -3.72056C88.8512 -3.79368 88.1088 -3.70361 87.412 -3.45672C86.7152 -3.20984 86.081 -2.81216 85.5542 -2.29187C85.0076 -1.7402 84.599 -1.06687 84.0721 -0.495397C83.8164 -0.209994 83.5201 0.0359526 83.1929 0.234504L82.7393 0.483465L83.1929 0.729594C83.5196 0.930066 83.8157 1.17686 84.0721 1.46233C84.599 2.02815 85.0076 2.70713 85.5542 3.2588C86.0834 3.77481 86.7184 4.1687 87.4148 4.41301C88.1113 4.65732 88.8524 4.74616 89.5865 4.67334C89.2647 5.13626 89.0574 5.66955 88.982 6.22897C88.9065 6.78839 88.965 7.35782 89.1526 7.89001C89.3544 8.43084 89.6661 8.92363 90.0677 9.33711C90.4694 9.75059 90.9522 10.0757 91.4857 10.2919C92.567 10.7177 93.7617 10.7547 94.8671 10.3966L94.8022 10.3598C94.5566 10.4243 94.2961 10.3974 94.0687 10.2841C93.8413 10.1707 93.6624 9.97852 93.5652 9.74306C93.4787 9.50319 93.4482 9.24657 93.476 8.99298C93.5039 8.73939 93.5893 8.49561 93.7258 8.28042C94.1682 7.52223 94.9882 7.07523 95.8054 6.76969C96.6225 6.46415 97.496 6.25763 98.2371 5.81063C98.7023 5.54155 99.104 5.17471 99.4148 4.73524C99.7255 4.29577 99.938 3.79406 100.038 3.26446C100.136 2.60544 100.016 1.93213 99.6939 1.34916C104.828 0.96238 109.977 1.86565 114.676 3.97739C115.339 3.34364 116.1 2.82284 116.93 2.43554C116.753 2.31672 116.573 2.20638 116.389 2.09888C114.996 1.30917 113.481 0.761121 111.906 0.477805C113.475 0.193432 114.986 -0.352576 116.375 -1.1376C116.558 -1.2451 116.739 -1.35827 116.916 -1.47426C116.087 -1.8636 115.325 -2.38525 114.662 -3.01894C109.963 -0.906237 104.814 -0.00199604 99.6798 -0.387894C100.001 -0.970929 100.122 -1.64416 100.024 -2.30318C99.9243 -2.83291 99.7119 -3.33478 99.4011 -3.7743C99.0903 -4.21382 98.6884 -4.58057 98.223 -4.84936C97.4735 -5.29635 96.6084 -5.50288 95.7913 -5.80842C94.9741 -6.11396 94.1541 -6.56379 93.7118 -7.31915C93.5754 -7.53442 93.4901 -7.77819 93.4622 -8.03174C93.4344 -8.28529 93.4648 -8.54188 93.5511 -8.78179C93.6484 -9.01725 93.8272 -9.20942 94.0546 -9.32279C94.282 -9.43616 94.5425 -9.46306 94.7882 -9.39853L94.853 -9.43531C93.7476 -9.79344 92.5529 -9.75645 91.4716 -9.33063C90.9416 -9.11378 90.462 -8.78921 90.0629 -8.37733C89.6638 -7.96544 89.3539 -7.47514 89.1526 -6.93723Z" fill="black"/>
        <path d="M124.067 2.88914C128.317 1.81125 132.774 1.8056 137.159 1.90744C137.207 1.27656 137.232 1.13227 137.235 0.4929C137.238 -0.146474 137.207 -0.299244 137.159 -0.921643C132.774 -0.816967 128.317 -0.822625 124.067 -1.90334C119.675 -3.018 115.468 -5.43969 112.994 -9.25896C112.051 -9.13873 111.099 -9.12165 110.153 -9.20803C111.614 -6.73357 113.574 -4.59306 115.907 -2.92389C118.24 -1.25472 120.895 -0.0937834 123.701 0.484413C120.895 1.06412 118.24 2.2266 115.907 3.89723C113.575 5.56786 111.616 7.70973 110.156 10.1853C111.101 10.0964 112.052 10.1106 112.994 10.2278C115.468 6.42549 119.675 4.00379 124.067 2.88914Z" fill="black"/>
        <path d="M133.499 -14.3003C130.768 -13.7344 128.308 -12.2888 125.972 -10.7611C123.312 -9.02779 120.74 -7.16342 118.255 -5.16797C118.915 -4.63447 119.659 -4.21391 120.455 -3.92318C123.369 -5.41693 125.319 -6.98141 128.021 -8.08476C129.172 -8.57566 130.414 -8.81484 131.664 -8.78637C132.783 -8.78963 133.884 -8.4969 134.854 -7.93765C136.179 -7.12004 137.061 -5.70267 137.492 -4.20325C137.885 -2.95629 138.127 -1.66639 138.213 -0.361354V1.0928C138.15 2.48275 137.905 3.8583 137.483 5.18365C137.052 6.68307 136.17 8.09761 134.846 8.91521C133.875 9.47447 132.775 9.76719 131.656 9.76394C130.406 9.79364 129.164 9.55542 128.013 9.06515C125.31 7.95898 123.36 6.3945 120.447 4.90357C119.65 5.1943 118.907 5.61487 118.246 6.14837C120.726 8.13439 123.298 9.99875 125.964 11.7415C128.3 13.2692 130.754 14.7233 133.49 15.2807C136.226 15.838 139.303 15.3542 141.315 13.4163C143.048 11.7443 143.747 9.23207 143.699 6.80471C144.894 6.95748 146.139 6.41147 147.081 5.63065C148.16 4.73666 148.96 3.55976 149.898 2.50168C150.481 1.79813 151.175 1.19592 151.953 0.719355C151.984 0.699551 152.389 0.495858 152.389 0.495858L151.953 0.272359C151.176 -0.205943 150.482 -0.807919 149.898 -1.50997C148.974 -2.56804 148.174 -3.74494 147.081 -4.63894C146.131 -5.42259 144.886 -5.96577 143.699 -5.813C143.747 -8.24319 143.048 -10.7526 141.315 -12.4246C139.312 -14.3851 136.232 -14.8548 133.499 -14.3003Z" fill="black"/>
        <path d="M224.063 -35.4707C223.314 -33.8949 222.88 -32.1154 223.17 -30.3925C223.46 -28.6696 224.562 -27.0287 226.185 -26.4007C227.808 -25.7726 229.902 -26.3837 230.693 -27.9369C231.053 -28.6429 231.133 -29.4595 230.917 -30.2222C230.7 -30.9849 230.204 -31.637 229.528 -32.047C228.852 -32.4571 228.046 -32.5946 227.273 -32.432C226.5 -32.2693 225.817 -31.8186 225.362 -31.1705C225.407 -32.3633 225.689 -33.5351 226.191 -34.6167C226.694 -35.6983 227.408 -36.6678 228.29 -37.468C230.204 -39.1596 232.64 -40.1368 235.188 -40.2349C238.893 -40.4216 242.7 -38.8204 244.985 -35.8894C244.498 -36.3445 243.861 -36.6028 243.196 -36.6147C242.531 -36.6265 241.885 -36.391 241.382 -35.9535C240.879 -35.516 240.555 -34.9074 240.472 -34.2446C240.39 -33.5818 240.554 -32.9117 240.933 -32.3631C241.313 -31.8145 241.881 -31.4261 242.528 -31.2727C243.176 -31.1192 243.857 -31.2115 244.441 -31.5317C245.025 -31.852 245.47 -32.3777 245.691 -33.0076C245.912 -33.6376 245.894 -34.3275 245.639 -34.9445C247.592 -31.7476 247.702 -27.4248 245.639 -24.2902C244.554 -22.6323 242.914 -21.2744 242.362 -19.3676C242.144 -18.6136 242.114 -17.8176 242.275 -17.0494C242.435 -16.2811 242.781 -15.5642 243.282 -14.9614C243.782 -14.3586 244.423 -13.8885 245.147 -13.5923C245.871 -13.296 246.656 -13.1828 247.434 -13.2624C241.173 -7.76831 234.52 -4.0226 226.45 -2.02244C226.616 -1.70275 227.605 -0.378738 228.27 -0.0703659C233.131 -1.26707 237.338 -3.49073 241.722 -6.09632C245.949 -8.60289 249.725 -11.7828 253.929 -14.3007C256.465 -15.8255 259.176 -17.1778 262.087 -17.7493C264.997 -18.3208 268.156 -18.0492 270.689 -16.5045C273.222 -14.9598 274.916 -12.1053 274.674 -9.19983C277.103 -9.55063 279.61 -9.01028 281.828 -7.95786C284.113 -6.87432 286.117 -5.2674 287.929 -3.50205C288.951 -2.50621 289.932 -1.44814 291.101 -0.630527C291.824 -0.115032 292.635 0.262791 293.494 0.484131C292.635 0.704311 291.823 1.08223 291.101 1.59879C289.932 2.41357 288.951 3.47447 287.929 4.47031C286.117 6.23566 284.113 7.83975 281.828 8.92329C279.61 9.97854 277.103 10.5161 274.674 10.1653C274.924 13.0736 273.18 15.9507 270.689 17.47C268.198 18.9892 265.006 19.2806 262.095 18.7148C259.184 18.1489 256.485 16.791 253.937 15.2661C249.733 12.7482 245.946 9.56549 241.731 7.06176C237.346 4.45617 233.139 2.23251 228.279 1.0358C227.614 1.34134 226.625 2.66536 226.458 2.98504C234.528 4.98521 241.181 8.73375 247.442 14.225C246.665 14.1487 245.881 14.2643 245.159 14.5618C244.436 14.8593 243.797 15.3296 243.297 15.9318C242.797 16.534 242.451 17.2499 242.29 18.0169C242.128 18.784 242.156 19.5791 242.37 20.333C242.934 22.2398 244.563 23.5949 245.647 25.2556C247.702 28.3902 247.592 32.7102 245.647 35.9071C245.784 35.581 245.854 35.2309 245.853 34.8773C245.852 34.251 245.635 33.6443 245.24 33.1596C244.845 32.6748 244.296 32.3417 243.685 32.2164C243.074 32.0911 242.438 32.1813 241.885 32.4718C241.333 32.7623 240.897 33.2352 240.651 33.8109C240.405 34.3866 240.365 35.0297 240.536 35.6319C240.708 36.234 241.081 36.7583 241.593 37.1162C242.105 37.4742 242.724 37.644 243.346 37.5969C243.968 37.5497 244.555 37.2887 245.008 36.8577C242.723 39.7801 238.916 41.3842 235.21 41.206C232.657 41.1093 230.215 40.1299 228.298 38.4335C227.416 37.6335 226.702 36.664 226.199 35.5823C225.697 34.5007 225.415 33.3288 225.371 32.1359C225.825 32.7869 226.509 33.2402 227.283 33.4043C228.058 33.5683 228.866 33.4308 229.543 33.0195C230.22 32.6083 230.717 31.954 230.932 31.1891C231.147 30.4242 231.065 29.6058 230.702 28.8995C229.902 27.3491 227.811 26.738 226.193 27.3661C224.576 27.9942 223.466 29.6294 223.178 31.3551C222.891 33.0809 223.322 34.8603 224.072 36.4475C226.129 40.7816 230.643 43.7465 235.408 44.2755C240.173 44.8046 245.064 43.0081 248.632 39.7943C252.095 36.6823 254.335 32.3113 255.22 27.7254C259.937 28.4555 264.755 27.3583 268.697 24.6558L268.804 24.5794C268.432 25.1111 268.263 25.7587 268.325 26.4052C268.388 27.0516 268.679 27.6541 269.146 28.1036C269.613 28.5532 270.225 28.82 270.871 28.8559C271.517 28.8918 272.154 28.6943 272.668 28.2992C273.181 27.9042 273.537 27.3376 273.67 26.702C273.804 26.0665 273.706 25.404 273.395 24.8345C273.084 24.2649 272.58 23.826 271.975 23.597C271.37 23.3681 270.703 23.3644 270.095 23.5864C273.294 20.873 275.503 17.1688 276.376 13.0566C279.798 12.731 283.051 11.4051 285.731 9.24298C287.627 7.70679 289.194 5.78018 291.163 4.343C293.352 2.75375 295.946 1.82256 298.642 1.6582C298.454 1.93533 298.3 2.23463 298.185 2.54937C297.991 3.09214 297.934 3.67485 298.019 4.24519C298.105 4.81553 298.33 5.35563 298.675 5.817C299.02 6.27837 299.473 6.64656 299.994 6.88852C300.516 7.13047 301.089 7.2386 301.662 7.20321C302.414 7.16397 303.126 6.85469 303.669 6.33185C303.927 6.07724 304.129 5.77133 304.262 5.43372C304.396 5.09612 304.458 4.73425 304.444 4.3713C305.348 4.65421 306.357 4.29208 307.118 3.71212C307.879 3.13216 308.481 2.33718 309.175 1.66103C309.586 1.24584 310.062 0.90086 310.584 0.639732L311.001 0.475643L310.584 0.308731C310.061 0.049427 309.584 -0.295757 309.175 -0.71257C308.481 -1.38872 307.89 -2.17238 307.118 -2.76083C306.346 -3.34928 305.348 -3.7114 304.444 -3.42283C304.457 -3.78535 304.396 -4.14678 304.262 -4.48392C304.129 -4.82107 303.927 -5.12648 303.669 -5.38056C303.125 -5.90294 302.414 -6.213 301.662 -6.25475C301.089 -6.28941 300.517 -6.1808 299.995 -5.93863C299.474 -5.69647 299.021 -5.32832 298.677 -4.86715C298.332 -4.40599 298.107 -3.86622 298.021 -3.29618C297.935 -2.72615 297.992 -2.14367 298.185 -1.6009C298.3 -1.28501 298.453 -0.984692 298.642 -0.706909C295.946 -0.872646 293.353 -1.80371 291.163 -3.39171C289.191 -4.83172 287.627 -6.7555 285.731 -8.29169C283.05 -10.4531 279.798 -11.7798 276.376 -12.1081C275.502 -16.2193 273.293 -19.9225 270.095 -22.6352C270.7 -22.4149 271.364 -22.4194 271.966 -22.6479C272.569 -22.8763 273.07 -23.3136 273.379 -23.8808C273.688 -24.4479 273.785 -25.1073 273.652 -25.7399C273.519 -26.3724 273.165 -26.9363 272.654 -27.3296C272.143 -27.7228 271.508 -27.9195 270.865 -27.884C270.222 -27.8485 269.613 -27.5832 269.148 -27.136C268.683 -26.6889 268.393 -26.0894 268.33 -25.446C268.267 -24.8026 268.435 -24.1578 268.804 -23.6282L268.697 -23.7074C264.753 -26.4042 259.936 -27.4982 255.22 -26.7684C254.335 -31.3544 252.095 -35.7197 248.632 -38.8373C245.064 -42.0483 240.178 -43.8448 235.408 -43.3158C230.637 -42.7867 226.129 -39.8134 224.063 -35.4707Z" fill="black"/>
        <path d="M217.154 39.9643C220.053 35.4802 221.823 30.3454 224.644 25.8047C227.43 21.3178 231.688 17.2495 236.909 16.7092C236.842 13.909 237.45 11.134 238.682 8.62083L236.723 7.55992C235.446 9.87492 234.668 12.4342 234.441 15.0711C231.085 14.5515 227.65 15.0071 224.544 16.3842C221.437 17.7613 218.788 20.0024 216.909 22.8426C216.565 20.8368 215.449 19.0262 214.108 17.49C211.65 14.6809 208.443 12.637 204.865 11.5999C201.284 10.5808 197.487 10.6102 193.921 11.6847C191.044 12.5617 188.345 14.146 186.392 16.4404C185.293 17.7276 184.419 19.2695 184.276 20.967C184.132 22.6644 184.811 24.4778 186.248 25.3747C186.465 25.5087 186.696 25.6197 186.936 25.7057C186.434 25.7509 185.933 25.8217 185.44 25.8811C183.145 26.1573 180.826 26.1649 178.53 25.9037C176.558 25.6802 174.585 25.2474 172.841 24.2855C171.097 23.3236 169.632 21.7817 169.068 19.8721C168.581 18.2312 169.542 15.4559 170.587 14.1319C168.719 15.5775 167.386 19.0856 167.265 21.4592C167.127 24.1412 167.918 26.8147 169.186 29.1826C169.975 30.6537 170.987 32.0598 172.385 32.9679C169.849 34.3061 167.902 36.6938 166.836 39.3815C165.74 42.1455 165.515 45.2037 165.864 48.1516C163.653 48.7913 161.595 49.8762 159.814 51.3401C158.034 52.8041 156.569 54.6166 155.509 56.6672C154.448 54.6169 152.983 52.8047 151.203 51.3407C149.423 49.8768 147.365 48.7918 145.154 48.1516C145.503 45.1981 145.277 42.1398 144.181 39.3815C143.116 36.6938 141.183 34.3061 138.633 32.9679C140.042 32.0598 141.042 30.6537 141.831 29.1826C143.099 26.8147 143.891 24.1412 143.753 21.4592C143.632 19.0856 142.299 15.5775 140.431 14.1319C141.476 15.4559 142.437 18.2312 141.95 19.8721C141.386 21.7817 139.904 23.3264 138.168 24.2911C136.432 25.2558 134.452 25.6859 132.479 25.9094C130.183 26.1706 127.864 26.163 125.57 25.8867C125.077 25.8273 124.575 25.7566 124.074 25.7113C124.314 25.6253 124.544 25.5144 124.761 25.3803C126.193 24.4835 126.877 22.6616 126.734 20.9726C126.59 19.2836 125.716 17.7276 124.617 16.4461C122.665 14.1517 119.962 12.5674 117.088 11.6904C113.524 10.605 109.723 10.5754 106.143 11.6052C102.562 12.6349 99.3531 14.6802 96.9016 17.4957C95.5603 19.0319 94.4417 20.8425 94.1007 22.8483C92.2219 20.008 89.5726 17.767 86.4659 16.3898C83.3591 15.0127 79.9248 14.5571 76.5684 15.0768C76.3432 12.4403 75.5675 9.88102 74.2916 7.56557L72.3192 8.62648C73.5497 11.1401 74.1577 13.9148 74.0915 16.7148C79.3157 17.2552 83.5706 21.3234 86.3574 25.8103C89.1752 30.3369 90.9476 35.4858 93.8471 39.9558C95.8459 43.0221 98.3334 45.7375 101.21 47.9932C100.847 47.8109 100.447 47.7141 100.041 47.7103C99.4228 47.7088 98.823 47.9198 98.3411 48.3081C97.8593 48.6964 97.5243 49.2386 97.392 49.8446C97.2597 50.4505 97.338 51.0837 97.6138 51.6388C97.8897 52.1939 98.3465 52.6374 98.9083 52.8956C99.4701 53.1539 100.103 53.2112 100.702 53.0582C101.301 52.9051 101.829 52.5508 102.199 52.0543C102.57 51.5578 102.76 50.9489 102.738 50.329C102.716 49.709 102.483 49.1154 102.078 48.6467C106.292 51.7571 111.124 53.9186 116.246 54.9839C125.367 56.8709 135.088 55.2357 143.342 50.9015C142.694 50.7588 142.03 50.7139 141.369 50.7685C141.484 50.0133 141.491 49.2454 141.389 48.4883C138.494 50.5394 135.189 51.9343 131.704 52.5763C132.812 50.8619 132.268 48.361 130.763 46.938C129.196 45.447 126.889 44.9859 124.736 45.1528C122.583 45.3197 120.523 46.0383 118.446 46.6268C114.966 47.6113 111.303 48.245 107.756 47.549C102.45 46.5023 98.1076 42.5868 95.0757 38.0659C96.0705 38.7355 97.2424 39.0902 98.4401 39.0844C99.0884 39.0807 99.7278 38.933 100.312 38.6517C100.897 38.3705 101.412 37.9627 101.821 37.4577C102.709 36.2978 102.861 34.7418 102.85 33.2791C102.827 29.7626 102.084 26.1838 102.906 22.7634C103.359 20.8845 104.269 19.1476 105.555 17.7084C106.84 16.2692 108.461 15.1725 110.272 14.5165C112.083 13.8605 114.028 13.6658 115.933 13.9497C117.837 14.2336 119.642 14.9874 121.185 16.1434C122.634 17.2297 123.896 18.848 123.781 20.6699C123.039 19.6995 121.543 19.4987 120.512 20.1295C120.025 20.4517 119.643 20.9111 119.415 21.4501C119.187 21.9892 119.123 22.5838 119.23 23.1595C119.352 23.7332 119.616 24.2668 119.997 24.7116C120.378 25.1564 120.864 25.4982 121.411 25.7057C121.518 25.7453 121.628 25.7764 121.735 25.8075C121.522 25.8574 121.313 25.9256 121.112 26.0112C120.533 26.281 120.014 26.6664 119.589 27.1441C119.163 27.6218 118.838 28.1816 118.635 28.7894C118.268 29.8807 118.133 31.0372 118.238 32.1843C115.46 30.5491 113.383 27.836 112.228 24.8287C111.038 21.7167 110.774 18.3218 111.117 15.0032C110.795 15.0697 110.48 15.1663 110.176 15.2918C110.004 15.3625 109.717 15.4927 109.432 15.62C109.21 15.7295 108.996 15.8533 108.79 15.9906C108.797 16.1244 108.797 16.2585 108.79 16.3923C108.655 20.039 109.145 23.6829 110.52 27.0806C111.652 29.9399 113.589 32.4063 116.094 34.1788C115.476 33.8783 114.768 33.8253 114.113 34.0307C113.458 34.236 112.906 34.6843 112.569 35.2841C112.232 35.8839 112.135 36.5902 112.298 37.2593C112.461 37.9283 112.872 38.5096 113.448 38.885C114.023 39.2604 114.719 39.4016 115.394 39.2798C116.069 39.1579 116.673 38.7823 117.082 38.2294C117.491 37.6764 117.675 36.9877 117.596 36.3035C117.517 35.6193 117.181 34.991 116.657 34.5466C117.172 34.8782 117.706 35.1777 118.258 35.4434C124.105 38.2725 131.515 36.7957 136.965 40.3349C140.177 42.4227 142.237 45.5036 142.212 50.0669C145.692 50.0896 148.974 51.9511 151.296 54.5425C152.575 56.0104 153.634 57.6572 154.441 59.4312L155.5 62L156.56 59.4312C157.373 57.656 158.439 56.0091 159.724 54.5425C162.046 51.9511 165.329 50.0896 168.809 50.0669C168.784 45.5036 170.843 42.4284 174.056 40.3349C179.505 36.7957 186.916 38.2696 192.763 35.4434C196.298 33.7316 199.06 30.7457 200.501 27.0806C201.876 23.6857 202.366 20.039 202.231 16.3923C202.231 16.0868 202.231 16.0104 201.974 15.8548C201.744 15.7175 201.506 15.5928 201.261 15.4814C200.819 15.2747 200.357 15.1108 199.884 14.9919C200.227 18.2991 199.962 21.711 198.773 24.8173C197.618 27.836 195.541 30.5491 192.763 32.173C192.868 31.0259 192.733 29.8694 192.366 28.7781C192.162 28.1706 191.837 27.611 191.412 27.1335C190.986 26.6559 190.468 26.2702 189.889 25.9999C189.687 25.9138 189.477 25.8457 189.263 25.7962C189.373 25.7651 189.483 25.734 189.59 25.6944C190.136 25.4865 190.622 25.1445 191.003 24.6998C191.384 24.2551 191.648 23.7216 191.771 23.1482C191.876 22.5736 191.81 21.9809 191.58 21.444C191.351 20.9071 190.97 20.4499 190.483 20.1295C189.452 19.4987 187.947 19.6995 187.218 20.6699C187.102 18.848 188.362 17.2297 189.813 16.1434C191.356 14.9874 193.161 14.2336 195.065 13.9497C196.97 13.6658 198.915 13.8605 200.726 14.5165C202.537 15.1725 204.158 16.2692 205.444 17.7084C206.729 19.1476 207.639 20.8845 208.092 22.7634C208.915 26.1838 208.171 29.7626 208.148 33.2791C208.148 34.7418 208.289 36.2978 209.177 37.4577C209.586 37.9627 210.101 38.3705 210.686 38.6517C211.27 38.933 211.91 39.0807 212.558 39.0844C213.753 39.0855 214.92 38.7278 215.911 38.0575C212.888 42.584 208.548 46.4938 203.231 47.5405C199.689 48.2365 196.015 47.6028 192.54 46.6183C190.483 46.0383 188.415 45.3084 186.257 45.1528C184.098 44.9972 181.796 45.4357 180.229 46.938C178.733 48.3525 178.181 50.8619 179.288 52.5763C175.801 51.9419 172.492 50.5537 169.592 48.5081C169.489 49.2651 169.496 50.0332 169.612 50.7883C168.952 50.7337 168.287 50.7786 167.64 50.9213C175.893 55.2555 185.614 56.8907 194.735 55.0037C199.857 53.9384 204.689 51.7769 208.903 48.6665C208.461 49.1764 208.222 49.8331 208.234 50.5094C208.246 51.1856 208.508 51.8333 208.969 52.3269C209.429 52.8205 210.056 53.1249 210.727 53.181C211.399 53.2372 212.067 53.0411 212.603 52.6308C213.138 52.2205 213.503 51.6253 213.626 50.9603C213.75 50.2954 213.623 49.6081 213.27 49.0318C212.918 48.4554 212.365 48.0309 211.718 47.8406C211.072 47.6503 210.378 47.7077 209.771 48.0017C212.655 45.7476 215.149 43.0321 217.154 39.9643Z" fill="black"/>
        <path d="M164.421 7.24892C163.669 6.82739 163.294 6.61804 162.776 5.9334C159.025 9.44713 156.709 13.289 155.5 17.5553C154.291 13.2919 151.975 9.44713 148.222 5.9334C147.695 6.61804 147.331 6.82739 146.579 7.24892C149.121 9.69723 151.115 12.6602 152.43 15.9413C153.744 19.2224 154.349 22.7466 154.204 26.2802C154.187 26.6451 154.162 27.0129 154.128 27.3779C154.09 26.6986 153.799 26.0586 153.312 25.5852C152.826 25.1119 152.179 24.84 151.502 24.8239C150.825 24.8077 150.166 25.0484 149.658 25.498C149.149 25.9476 148.828 26.5731 148.759 27.2497C148.689 27.9264 148.876 28.6045 149.282 29.149C149.688 29.6935 150.284 30.0643 150.95 30.1876C151.616 30.3108 152.305 30.1774 152.877 29.814C153.45 29.4505 153.865 28.8838 154.04 28.2266C153.288 34.6118 150.231 40.6434 145.962 45.4416C146.002 46.2017 145.935 46.9638 145.762 47.7048C145.982 47.724 146.198 47.7706 146.407 47.8435C146.615 47.9164 146.813 48.0153 146.996 48.1377C151.058 44.2 153.995 39.2411 155.5 33.7773C157.003 39.2402 159.937 44.199 163.996 48.1377C164.181 48.0127 164.382 47.9119 164.593 47.8378C164.802 47.7649 165.018 47.7184 165.238 47.6992C165.065 46.958 164.997 46.1962 165.035 45.4359C160.778 40.6548 157.735 34.6486 156.96 28.303C157.151 28.9511 157.576 29.5043 158.152 29.8543C158.728 30.2042 159.413 30.3257 160.074 30.195C160.734 30.0642 161.322 29.6906 161.723 29.1474C162.123 28.6041 162.307 27.9303 162.239 27.2579C162.171 26.5854 161.855 25.9628 161.353 25.5119C160.852 25.061 160.201 24.8143 159.528 24.8201C158.854 24.826 158.208 25.0838 157.714 25.5433C157.22 26.0028 156.915 26.6308 156.858 27.3043C156.827 26.962 156.805 26.6168 156.788 26.2745C156.644 22.7412 157.251 19.2177 158.567 15.9376C159.883 12.6575 161.878 9.69584 164.421 7.24892Z" fill="black"/>
        <path d="M240.566 -4.80357L238.523 -3.61253C240.002 -1.55558 242.168 -0.101494 244.627 0.483987C242.17 1.06539 240.003 2.51555 238.523 4.56919L240.566 5.76023C242.677 3.44038 245.075 1.84478 248.822 1.66371C251.939 1.51094 255.047 1.33554 258.161 1.51943H258.183L258.248 12.584C258.71 11.3958 259.595 10.4424 260.474 9.52857C261.353 8.61478 262.196 7.75191 262.728 6.65139C263.192 5.75604 263.308 4.71928 263.052 3.74309C263.872 4.18009 264.782 4.41752 265.71 4.43622C267.378 4.41076 268.857 3.40926 270.179 2.38796C270.821 1.89287 271.472 1.37515 272.151 0.939469L272.926 0.430233L272.151 -0.00544357C271.461 -0.441123 270.81 -0.958847 270.179 -1.45677C268.857 -2.47524 267.378 -3.47673 265.71 -3.50219C264.782 -3.48436 263.872 -3.2479 263.052 -2.8119C263.308 -3.78714 263.192 -4.82305 262.728 -5.71737C262.196 -6.82071 261.319 -7.69773 260.474 -8.59455C259.629 -9.49137 258.71 -10.4646 258.248 -11.65L258.183 -0.588235H258.161C255.061 -0.407173 251.939 -0.588238 248.822 -0.732521C245.066 -0.890949 242.677 -2.48372 240.566 -4.80357Z" fill="black"/>
        <path d="M198.818 36.6549C198.818 35.1596 197.611 33.9474 196.121 33.9474C194.632 33.9474 193.425 35.1596 193.425 36.6549C193.425 38.1501 194.632 39.3623 196.121 39.3623C197.611 39.3623 198.818 38.1501 198.818 36.6549Z" fill="black"/>
        <path d="M221.845 -6.93635C221.645 -7.47733 221.334 -7.97035 220.932 -8.38391C220.531 -8.79747 220.048 -9.12249 219.515 -9.33824C218.434 -9.76406 217.239 -9.80105 216.134 -9.44291L216.198 -9.40614C216.444 -9.47115 216.704 -9.44443 216.931 -9.33097C217.158 -9.2175 217.336 -9.02502 217.433 -8.7894C217.52 -8.54985 217.552 -8.29323 217.524 -8.03954C217.497 -7.78584 217.412 -7.54192 217.275 -7.32676C216.832 -6.57139 216.012 -6.12157 215.195 -5.81603C214.378 -5.51049 213.505 -5.30397 212.764 -4.85697C212.298 -4.58818 211.896 -4.22143 211.585 -3.78191C211.275 -3.34239 211.062 -2.84052 210.963 -2.31079C210.864 -1.65178 210.985 -0.978538 211.307 -0.395502C206.173 -0.00960445 201.023 -0.913844 196.325 -3.02655C195.661 -2.39247 194.9 -1.87078 194.07 -1.48187C194.248 -1.36588 194.431 -1.25271 194.614 -1.14521C196.008 -0.356734 197.523 0.191237 199.097 0.475857C197.523 0.759171 196.007 1.30722 194.614 2.09692C194.431 2.20443 194.251 2.31476 194.07 2.43358C194.901 2.82044 195.662 3.34129 196.325 3.97543C201.024 1.86369 206.173 0.960431 211.307 1.34722C210.985 1.93018 210.864 2.60349 210.963 3.26251C211.063 3.79211 211.275 4.29382 211.586 4.73329C211.897 5.17276 212.298 5.5396 212.764 5.80868C213.513 6.25568 214.378 6.4622 215.195 6.76774C216.012 7.07328 216.832 7.52028 217.275 8.27847C217.411 8.49366 217.497 8.73744 217.525 8.99103C217.553 9.24462 217.522 9.50124 217.435 9.74111C217.338 9.97657 217.159 10.1687 216.932 10.2821C216.705 10.3955 216.444 10.4224 216.198 10.3579L216.134 10.3946C217.239 10.7528 218.434 10.7158 219.515 10.29C220.048 10.0738 220.531 9.74864 220.933 9.33516C221.335 8.92168 221.646 8.42889 221.848 7.88806C222.036 7.35587 222.094 6.78644 222.019 6.22702C221.943 5.6676 221.736 5.13431 221.414 4.67139C222.148 4.74421 222.889 4.65537 223.586 4.41106C224.282 4.16675 224.917 3.77286 225.446 3.25685C225.993 2.69103 226.402 2.03185 226.929 1.46038C227.184 1.17424 227.481 0.927362 227.808 0.727645L228.261 0.481516L227.808 0.232555C227.48 0.0347252 227.184 -0.21131 226.929 -0.49735C226.402 -1.06317 225.993 -1.74214 225.446 -2.29382C224.92 -2.81411 224.286 -3.21179 223.589 -3.45868C222.892 -3.70557 222.15 -3.79563 221.414 -3.7225C221.736 -4.18503 221.943 -4.71798 222.018 -5.27698C222.093 -5.83599 222.034 -6.40489 221.845 -6.93635Z" fill="black"/>
        <path d="M198.007 10.2275C198.948 10.1064 199.9 10.0884 200.845 10.1738C199.386 7.69803 197.428 5.556 195.095 3.88532C192.763 2.21464 190.109 1.05226 187.302 0.472857C190.109 -0.106546 192.764 -1.26923 195.096 -2.94044C197.428 -4.61165 199.387 -6.7544 200.845 -9.23091C199.9 -9.14455 198.948 -9.16163 198.007 -9.28183C195.533 -5.47105 191.323 -3.05784 186.933 -1.92621C182.684 -0.8455 178.223 -0.839842 173.842 -0.944518C173.794 -0.310803 173.766 -0.141058 173.766 0.470024C173.767 0.942533 173.792 1.41467 173.842 1.88457C178.223 1.78272 182.684 1.78838 186.933 2.86626C191.329 4.00355 195.533 6.42525 198.007 10.2275Z" fill="black"/>
        <path d="M177.501 -14.3004C174.768 -14.8663 171.685 -14.3768 169.676 -12.4361C167.943 -10.7641 167.244 -8.25468 167.292 -5.8245C166.097 -5.97727 164.852 -5.43408 163.911 -4.65043C162.832 -3.75644 162.029 -2.57954 161.107 -1.52146C160.523 -0.819412 159.829 -0.217437 159.053 0.260864L158.616 0.48436C158.616 0.48436 159.022 0.688057 159.053 0.70786C159.831 1.18443 160.525 1.78663 161.107 2.49018C162.029 3.54826 162.832 4.72516 163.911 5.61915C164.86 6.39998 166.106 6.94599 167.292 6.79322C167.244 9.22058 167.943 11.7328 169.676 13.4048C171.685 15.3427 174.768 15.8237 177.501 15.2692C180.234 14.7147 182.691 13.2577 185.027 11.73C187.687 9.98914 190.26 8.12477 192.745 6.13687C192.085 5.60337 191.341 5.18281 190.545 4.89207C187.631 6.383 185.681 7.94749 182.979 9.05366C181.828 9.54393 180.586 9.78215 179.335 9.75245C178.216 9.7557 177.116 9.46297 176.146 8.90372C174.821 8.08611 173.939 6.67157 173.508 5.17216C173.085 3.84714 172.84 2.47141 172.778 1.0813V-0.372852C172.868 -1.67347 173.113 -2.95856 173.508 -4.2006C173.939 -5.70002 174.821 -7.11739 176.146 -7.935C177.116 -8.49425 178.216 -8.78698 179.335 -8.78372C180.586 -8.81219 181.828 -8.57301 182.979 -8.08211C185.681 -6.97877 187.631 -5.41428 190.545 -3.92052C191.341 -4.21125 192.085 -4.63182 192.745 -5.16532C190.264 -7.15323 187.691 -9.01759 185.027 -10.7584C182.691 -12.289 180.232 -13.7431 177.501 -14.3004Z" fill="black"/>
    </g>
    <defs>
        <clipPath id="clip0_1_196">
            <rect width="62" height="311" fill="white" transform="translate(0 62) rotate(-90)"/>
        </clipPath>
    </defs>
</svg>
    